<?xml version="1.0" standalone="no"?>
<!DOCTYPE svg PUBLIC "-//W3C//DTD SVG 1.1//EN" "http://www.w3.org/Graphics/SVG/1.1/DTD/svg11.dtd" >
<svg xmlns="http://www.w3.org/2000/svg">
<metadata></metadata>
<defs>
<font id="kite_oneregular" horiz-adv-x="1376" >
<font-face units-per-em="2048" ascent="1638" descent="-410" />
<missing-glyph horiz-adv-x="573" />
<glyph horiz-adv-x="0" />
<glyph horiz-adv-x="682" />
<glyph horiz-adv-x="0" />
<glyph horiz-adv-x="0" />
<glyph unicode="&#x9;" horiz-adv-x="0" />
<glyph unicode="&#xd;" horiz-adv-x="681" />
<glyph unicode=" "  horiz-adv-x="573" />
<glyph unicode="&#x09;" horiz-adv-x="573" />
<glyph unicode="&#xa0;" horiz-adv-x="573" />
<glyph unicode="!" horiz-adv-x="604" d="M121 49q0 125 117 125q92 0 92 -76q0 -127 -117 -127q-92 0 -92 78zM211 416q0 20 2 39l115 1159q6 80 94 80t88 -66q0 -16 -10 -88l-162 -1112q-6 -49 -66.5 -49t-60.5 37z" />
<glyph unicode="&#x22;" horiz-adv-x="880" d="M205 1319q0 33 43 471q6 80 94 80t88 -64q-6 -39 -100 -471q-12 -49 -68.5 -49t-56.5 33zM532 1319q0 33 43 471q6 80 94.5 80t88.5 -64q-7 -39 -101 -471q-12 -49 -68.5 -49t-56.5 33z" />
<glyph unicode="#" horiz-adv-x="1701" d="M133 618q0 31 16.5 54.5t43.5 23.5h260l69 334h-250q-20 0 -31.5 19.5t-11.5 46t18.5 48t43.5 21.5h260l113 537q12 53 96 53q53 0 57 -35q0 -12 -6 -43l-109 -512h422l113 537q12 53 96 53q53 0 58 -35q0 -12 -7 -43l-108 -512h237q55 0 56 -63q0 -27 -17.5 -49.5 t-42.5 -22.5h-262l-69 -334h247q18 0 31.5 -17t13.5 -44t-16 -50.5t-47 -23.5h-258l-113 -538q-12 -51 -102 -52q-49 0 -51 29q0 2 6 39l108 522h-422l-112 -538q-12 -51 -103 -52q-49 0 -51 29q0 2 6 39l109 522h-248q-43 0 -43 57zM604 696h422l70 334h-422z" />
<glyph unicode="$" d="M92 303q0 84 66 84q23 0 38 -15.5t34.5 -56.5t29.5 -57q88 -127 229 -149l134 747q-252 182 -310 324q-27 66 -26 141q0 201 139 316.5t354 123.5l27 144q8 43 20.5 55t47 12t44 -11t9.5 -56l-27 -152q129 -20 224.5 -85.5t95.5 -130t-58 -64.5q-27 0 -110.5 66.5 t-173.5 84.5l-117 -668q86 -61 134 -101t110 -105q119 -123 118 -289q0 -227 -148.5 -357.5t-387.5 -132.5l-27 -149q-8 -43 -20.5 -55.5t-45 -12.5t-45 8t-12.5 37l2 23l27 160q-150 27 -254 116q-49 41 -85 101.5t-36 103.5zM453 1325q0 -80 52 -148.5t148 -142.5l105 596 q-139 -8 -222 -90t-83 -215zM610 102q156 10 253.5 107t97.5 244q0 90 -60.5 165.5t-171.5 157.5z" />
<glyph unicode="%" horiz-adv-x="2193" d="M205 1108q0 223 90 424q45 102 133 165.5t205 63.5q180 0 259 -120.5t79 -309.5q0 -223 -88 -424q-45 -102 -133 -165.5t-207 -63.5q-180 0 -259 121t-79 309zM342 1100q0 -305 199 -305q86 0 148.5 59t92.5 154q53 174 54 321q0 315 -207 316q-80 0 -138.5 -56.5 t-89.5 -144.5q-59 -170 -59 -344zM788 -49q0 8 11 39l530 1792q16 53 101 53q55 0 55 -35q0 -8 -10 -43l-531 -1784q-16 -51 -106 -51q-49 0 -50 29zM1305 414q0 223 88 422q47 104 135 167.5t205 63.5q180 0 259 -121t79 -309q0 -223 -89 -424q-45 -102 -133 -165.5 t-207 -63.5q-180 0 -258.5 120.5t-78.5 309.5zM1442 406q-1 -306 198 -306q86 0 148.5 59.5t91.5 155.5q55 172 55 320q0 315 -206 315q-80 0 -138.5 -56t-89.5 -144q-59 -170 -59 -344z" />
<glyph unicode="&#x26;" horiz-adv-x="1505" d="M121 451q0 301 315 489l103 61q-59 84 -88 129q-78 127 -78 259q0 188 122.5 292.5t299 104.5t287 -91t110.5 -238.5t-87 -245t-253 -197.5l-88 -53l399 -517q74 135 94 236q14 63 72 63q80 0 80 -69q0 -141 -145 -359l75 -96q37 -49 75 -79.5t59 -39.5q47 -18 47 -54 t-25 -55.5t-55 -19.5q-94 0 -221 162l-48 60q-192 -222 -526 -222q-231 0 -377.5 129t-146.5 351zM285 455q0 -158 106.5 -253.5t253 -95.5t258 55.5t176.5 147.5l-452 576l-103 -62q-240 -143 -239 -368zM532 1389q0 -59 25 -119t50.5 -95.5t74.5 -97.5l68 39 q211 121 258 223q22 48 22 105q0 92 -63.5 150.5t-175 58.5t-185.5 -71t-74 -193z" />
<glyph unicode="'" horiz-adv-x="552" d="M205 1319q0 33 43 471q6 80 94 80t88 -64q-6 -39 -100 -471q-12 -49 -68.5 -49t-56.5 33z" />
<glyph unicode="(" horiz-adv-x="888" d="M141 612q0 485 164 889q80 197 214 317.5t304 120.5q66 0 66 -71.5t-66 -71.5q-131 0 -235.5 -114.5t-161.5 -297.5q-121 -371 -121 -768q0 -477 144 -628q55 -58 131 -58q70 0 69 -73q0 -31 -20.5 -50.5t-50.5 -19.5q-121 0 -208 65.5t-137 184.5q-92 219 -92 575z" />
<glyph unicode=")" horiz-adv-x="888" d="M0 -143.5q0 71.5 66 71.5q131 0 235.5 115t161.5 297q121 371 121 768q0 477 -144 629q-55 57 -131 57q-70 0 -69 74q0 31 20.5 50t50.5 19q121 0 208 -65.5t136 -183.5q92 -219 93 -576q0 -485 -164 -889q-80 -197 -214 -317.5t-304 -120.5q-66 0 -66 71.5z" />
<glyph unicode="*" horiz-adv-x="1167" d="M205 1276q0 27 21.5 58.5t45 31.5t29.5 -2l270 -111l-12 158q-8 90 -8 123q0 74 80 74t80 -70v-6q0 -4 -1 -20.5t-2 -45t-4.5 -84t-5.5 -127.5l258 97q14 6 41 6t47.5 -27.5t20.5 -72t-45 -56.5l-283 -69l181 -220q16 -20 16 -47.5t-30 -54.5t-64.5 -27t-48.5 27 l-156 246l-150 -232q-25 -39 -60.5 -39t-64 28t-28.5 54.5t12 40.5l188 226l-264 67q-63 16 -63 74z" />
<glyph unicode="+" d="M172 841.5q0 67.5 55 67.5h402l47 412q6 49 72 49q25 0 44 -11t19 -23.5t-49 -426.5h397q20 0 32.5 -19.5t12.5 -46t-16.5 -48t-40.5 -21.5h-402l-55 -438q-6 -47 -69.5 -47t-63.5 41q0 2 10 82l43 362h-397q-41 0 -41 67.5z" />
<glyph unicode="," horiz-adv-x="473" d="M102 -377q0 2 1 7t3.5 19.5t6.5 34t11 57.5t15 82t21.5 115.5t28 151.5t98.5 80t84 -61q-1 -52 -142 -474q-16 -49 -71.5 -49t-55.5 37z" />
<glyph unicode="-" horiz-adv-x="937" d="M139.5 548.5q0.5 59.5 53.5 59.5h555q23 0 35 -17.5t12 -41t-15.5 -42t-40.5 -18.5h-561q-39 0 -38.5 59.5z" />
<glyph unicode="." horiz-adv-x="413" d="M102 49q0 125 117 125q92 0 92 -76q0 -127 -116 -127q-92 0 -93 78z" />
<glyph unicode="/" horiz-adv-x="987" d="M164 -49q0 8 10 39l531 1792q16 53 100 53q55 0 55 -35q0 -8 -10 -43l-531 -1784q-16 -51 -106 -51q-49 0 -49 29z" />
<glyph unicode="0" d="M55 672q0 307 90 567q51 147 128 260t201 184.5t276.5 71.5t262 -57.5t171.5 -159.5q115 -197 114 -483q0 -307 -90 -570q-49 -147 -125.5 -258.5t-200.5 -183.5t-277.5 -72t-263.5 57.5t-169 159.5q-117 193 -117 484zM227 657q0 -548 369 -548q127 0 225.5 72.5 t155.5 180t92 248.5q61 242 61 494q0 195 -81 344q-41 78 -120 124t-189.5 46t-203 -67.5t-148.5 -170t-93 -235.5q-68 -233 -68 -488z" />
<glyph unicode="1" d="M156 1067q0 35 43 63q168 111 287.5 218.5t169 178t83 127t59 82t66.5 25.5q82 0 82 -61q0 -35 -14 -150l-166 -1415h330q72 0 71 -63q0 -33 -21.5 -52.5t-58.5 -19.5h-825q-72 0 -72 63q0 33 21.5 52.5t58.5 19.5h330l158 1301q-82 -121 -267.5 -276.5t-260 -155.5 t-74.5 63z" />
<glyph unicode="2" d="M96 72q0 45 31 73l395 369q119 113 197 193.5t153 183.5q152 200 152 407q0 150 -86 235t-236 85q-90 0 -159.5 -33t-102.5 -69q-90 -104 -141 -105q-68 0 -68 74t135.5 172t347.5 98t345 -119.5t133 -324.5q0 -252 -188 -500q-92 -121 -175.5 -207t-201.5 -196 l-289 -267h778q29 0 47.5 -17.5t18.5 -45.5q0 -78 -86 -78h-912q-88 0 -88 72z" />
<glyph unicode="3" d="M16 344q0 33 19.5 51.5t60.5 18.5t54 -39q55 -125 160.5 -191.5t242.5 -66.5q188 0 318 106.5t130 283.5t-135 268t-334 91q-29 0 -49 18.5t-20 47.5q0 69 80 69q162 0 301 96.5t139 258.5q0 129 -85 195.5t-231.5 66.5t-252.5 -92q-74 -61 -101 -62q-70 0 -69 64 q0 41 41 78q70 72 178 110.5t223 38.5q205 0 339 -104.5t134 -294.5q0 -137 -84 -247t-223 -163q135 -49 226 -172t91 -264q0 -264 -175 -401.5t-462 -137.5q-203 0 -359.5 121t-156.5 252z" />
<glyph unicode="4" d="M66 551q0 23 24 82l305 676q76 168 93.5 242.5t17.5 177.5q0 57 63 57q90 0 90 -131t-124 -410l-279 -616h616q37 313 132 1067q8 66 83.5 65.5t75.5 -49.5l-6 -49q-61 -473 -129 -1034h158q31 0 50 -17.5t19 -46.5q0 -78 -81 -78h-162l-56 -450q-8 -66 -81.5 -66 t-73.5 60q2 35 53 456h-700q-88 0 -88 64z" />
<glyph unicode="5" d="M80 362q0 74 76 74q45 0 63 -45q61 -141 152.5 -207.5t259.5 -66.5t281.5 106.5t113.5 298.5q0 242 -190 330q-172 76 -437 76q-131 0 -133 78q0 14 2 22l113 614q10 47 30.5 65.5t67.5 18.5h658q70 0 69 -57q0 -78 -80 -78h-602l-96 -522q768 0 768 -526 q0 -274 -158.5 -423t-427.5 -149q-225 0 -377.5 118t-152.5 273z" />
<glyph unicode="6" d="M100 643q0 334 84 594q49 154 126 264.5t208 182t301 71.5q106 0 212 -34.5t161 -90t55 -94.5q0 -61 -69 -61q-27 0 -72 36q-131 106 -289 107q-440 0 -528 -694q61 70 183 114.5t228 44.5q233 0 367.5 -132t134.5 -365q0 -279 -153.5 -447t-423.5 -168q-141 0 -247 55.5 t-165 153.5q-113 188 -113 463zM274.5 642q-0.5 -95 16 -183t54.5 -171t112.5 -131t181.5 -48q188 0 289.5 135t101.5 321q0 375 -344 375q-121 0 -278 -88q-51 -29 -80 -29t-43 23q-10 -109 -10.5 -204z" />
<glyph unicode="7" d="M203 1649q0 77 82 77h874q88 0 88 -63q0 -23 -24 -82l-561 -1132q-82 -166 -101.5 -242t-19.5 -178q0 -57 -58.5 -57.5t-77 28.5t-18.5 90q0 170 125 422l530 1073h-770q-31 0 -50 17.5t-19 46.5z" />
<glyph unicode="8" d="M86 414q0 389 377 518q-225 133 -225 375q0 213 150.5 330.5t363.5 117.5t361.5 -109.5t148.5 -283.5t-92.5 -284.5t-249.5 -166.5q129 -63 213 -176t84 -246q0 -256 -162 -387t-407 -131t-403.5 119t-158.5 324zM254 445.5q0 -158.5 105.5 -251t275.5 -92.5t287.5 102.5 t117.5 274.5q0 135 -115.5 240.5t-262.5 124.5q-184 -27 -296 -133.5t-112 -265zM408 1314q0 -124 91 -203t230 -114q363 82 363 344q0 109 -80 192t-250 83t-262 -89t-92 -213z" />
<glyph unicode="9" d="M102 190q0 70 72 70q29 0 117 -76q35 -29 98.5 -52t140.5 -23q440 0 529 694q-51 -68 -178.5 -116t-233.5 -48q-233 0 -368.5 134t-135.5 368q0 276 155 445t425 169q141 0 246.5 -55t165.5 -152q113 -190 112 -465q0 -334 -84 -596q-49 -152 -125.5 -262t-208 -182 t-301.5 -72q-244 0 -378 135q-47 47 -48 84zM315 1163q0 -377 347 -377q125 0 276 93q49 31 78 31t47 -29q10 109 10 204t-16.5 182t-54 171t-114.5 132t-183 48q-188 0 -289 -135t-101 -320z" />
<glyph unicode=":" horiz-adv-x="413" d="M102 49q0 125 117 125q92 0 92 -76q0 -127 -116 -127q-92 0 -93 78zM190 774q0 125 117 125q92 0 92 -76q0 -127 -116 -127q-92 0 -93 78z" />
<glyph unicode=";" horiz-adv-x="413" d="M33 -377q0 2 1 7t3 19.5t6 34t11 57.5t15.5 82t21.5 115.5t27.5 151.5t98.5 80t84 -61q0 -52 -141 -474q-16 -49 -71.5 -49t-55.5 37zM190 774q0 125 117 125q92 0 92 -76q0 -127 -116 -127q-92 0 -93 78z" />
<glyph unicode="&#x3c;" d="M170 831.5q0 38.5 12.5 53t57.5 33.5l866 360q8 4 29.5 4t39 -23.5t17.5 -58.5t-31 -47l-768 -305v-14l688 -302q23 -8 23 -41.5t-22.5 -59t-46 -25.5t-31.5 4l-781 358q-53 25 -53 63.5z" />
<glyph unicode="=" d="M156 631q0 31 16 54.5t43 23.5h909q18 0 31.5 -17.5t13.5 -44t-16 -50.5t-47 -24h-907q-43 0 -43 58zM203 1034.5q0 26.5 18 48t43 21.5h899q55 0 56 -64q0 -27 -17.5 -49t-42.5 -22h-913q-20 0 -31.5 19.5t-11.5 46z" />
<glyph unicode="&#x3e;" d="M184 487.5q0 34.5 31 47.5l768 305v14l-688 301q-23 8 -23 42t22.5 59.5t46.5 25.5t32 -4l780 -358q53 -25 53 -64t-12 -53.5t-57 -32.5l-867 -360q-8 -4 -29.5 -4t-39 23.5t-17.5 58z" />
<glyph unicode="?" horiz-adv-x="1046" d="M131 1409q0 74 123 178.5t289 104.5t281.5 -98.5t115.5 -272.5q0 -178 -158 -317q-66 -57 -133 -111q-168 -135 -188 -270l-29 -195q-6 -49 -65.5 -49t-59.5 45q0 4 21 207q8 90 58 168t114.5 133t128.5 108q152 131 151 273q0 113 -68.5 175t-183.5 62q-72 0 -128 -33.5 t-84.5 -73.5t-58.5 -74t-54 -34q-72 0 -72 74zM227 49q0 125 117 125q92 0 92 -76q0 -127 -117 -127q-92 0 -92 78z" />
<glyph unicode="@" horiz-adv-x="1814" d="M84 309q0 236 63.5 450t180 381t302 266t410.5 99q334 0 513.5 -212t179.5 -562q0 -360 -136 -584q-47 -78 -121.5 -127t-171 -49t-160 59.5t-63.5 157.5q-104 -217 -342 -217q-147 0 -228 100.5t-81 258.5q0 285 195.5 479.5t486.5 194.5q96 0 140 -13.5t44 -58.5 q0 -10 -37.5 -327.5t-37.5 -368.5q0 -156 112 -156q76 0 134.5 69.5t88.5 176.5q63 209 64 399q0 315 -150.5 500.5t-445.5 185.5q-199 0 -360.5 -95t-262.5 -253q-207 -326 -206 -754q0 -334 168.5 -555t474.5 -221q229 0 422 78q33 14 50 14t29.5 -15.5t12.5 -39 t-39 -41.5q-197 -94 -494 -94q-352 0 -543.5 245.5t-191.5 628.5zM590 350q0 -106 49 -177t143 -71q264 0 328 500l37 295q-10 6 -51 6q-215 0 -360.5 -166t-145.5 -387z" />
<glyph unicode="A" horiz-adv-x="1433" d="M-43 37q0 33 100 248l674 1441q27 60 116 60h1q88 0 100 -60q354 -1702 355 -1703q0 -51 -78 -51q-1 0 -1 -1q-77 0 -89 60l-91 430h-731l-135 -297q-12 -33 -25.5 -59.5t-21.5 -44t-13 -26.5t-12.5 -21.5t-13.5 -18.5l-12 -12q-10 -10 -37 -10q-1 0 -2 -1q-27 1 -55 17 q-30 16 -29 49zM373 586h645l-195 968z" />
<glyph unicode="B" horiz-adv-x="1460" d="M117 55v11l198 1648q10 72 465 72q229 0 384 -99.5t157 -287.5q0 -147 -84 -260t-236 -176q338 -145 338 -459q0 -166 -100 -291q-193 -242 -623 -242q-223 0 -376 17l-45 6q-78 6 -78 61zM287 127q143 -14 307 -14t289 44t209 138t84 219q0 156 -143.5 271.5 t-342.5 115.5h-311zM395 1030h377q168 23 277.5 120t109.5 235.5t-110.5 207t-276.5 68.5t-305 -25z" />
<glyph unicode="C" horiz-adv-x="1353" d="M86 676q0 401 172 733q86 170 243.5 273.5t366.5 103.5q260 0 414 -154q74 -74 74 -114q0 -20 -34 -44t-55.5 -24t-49 33t-61.5 72.5t-111.5 72.5t-195.5 33t-225.5 -69.5t-175 -177t-114.5 -243.5q-84 -244 -84 -505q0 -229 100 -385q51 -80 140.5 -126t205.5 -46 q246 0 408 176q6 6 26 32q37 53 64 53.5t47.5 -17t20.5 -38t-15 -43.5q-94 -147 -240.5 -224t-324.5 -77q-309 0 -452.5 192.5t-143.5 512.5z" />
<glyph unicode="D" horiz-adv-x="1585" d="M115 49q0 29 4 57l192 1608q2 20 20.5 33.5t39.5 15.5q233 23 442 23q340 0 511 -179t171 -509q0 -475 -197 -789q-100 -160 -275 -249t-429 -89t-401 21q-78 10 -78 57zM283 127q131 -18 325.5 -18t339 87t223.5 234q160 293 160 690q0 242 -139 389.5t-375.5 147.5 t-353.5 -21z" />
<glyph unicode="E" horiz-adv-x="1224" d="M119 84l194 1608q7 69 58 69h790q63 0 64 -55q0 -41 -16.5 -57.5t-59.5 -16.5h-688l-68 -641h568q71 0 71 -52v-1q0 -41 -17.5 -58.5t-60.5 -17.5h-579l-90 -731h731q53 0 53 -61q0 -31 -16.5 -50.5t-40.5 -19.5h-828q-67 0 -67 51q0 14 2 33z" />
<glyph unicode="F" horiz-adv-x="1132" d="M117 29l198 1663q11 69 58 69h790q63 0 64 -55q0 -41 -15.5 -57.5t-58.5 -16.5h-688l-70 -641h637q72 0 72 -53q0 -41 -17.5 -58.5t-60.5 -17.5h-647l-105 -825q-8 -66 -82.5 -66t-74.5 58z" />
<glyph unicode="G" horiz-adv-x="1490" d="M86 676q0 346 115 618q61 145 151 253t224.5 173.5t276.5 65.5t249.5 -42t159 -88t51.5 -73t-31 -55.5t-61 -28.5q-6 0 -31 25.5t-59.5 55.5t-105.5 55.5t-157 25.5q-156 0 -279.5 -96.5t-195.5 -249.5q-143 -313 -143 -649q0 -319 196 -476q101 -82 254 -82h2 q154 1 286 102t153 251l43 336h-516q-53 0 -54 63q0 29 16.5 47.5t41.5 18.5h620q63 0 64 -56q0 -16 -103 -841q-4 -35 -22.5 -46.5t-56.5 -11.5q-88 0 -89 52q0 8 19 120q-166 -172 -430 -172q-301 0 -444.5 192.5t-143.5 512.5z" />
<glyph unicode="H" horiz-adv-x="1564" d="M117 29q0 6 207 1691q8 66 83.5 66t75.5 -49q0 -4 -90 -731h809q12 137 88 714q8 66 84 66t76 -49q0 -6 -209 -1700q-8 -66 -83 -66t-75 58q0 6 103 848h-807l-105 -840q-8 -66 -82.5 -66t-74.5 58z" />
<glyph unicode="I" horiz-adv-x="600" d="M117 29q0 6 207 1691q8 66 83.5 66t75.5 -49q0 -6 -209 -1700q-8 -66 -82.5 -66t-74.5 58z" />
<glyph unicode="J" horiz-adv-x="882" d="M-231 -184q0 25 17 44t42 19t62.5 -10t86.5 -10q266 0 367 159q53 82 79 175.5t42 234.5l137 1200h-518q-55 0 -55 64q0 31 16 50t41 19h616q66 0 66 -53v-10l-150 -1311q-18 -166 -55 -282.5t-107.5 -210t-185 -138.5t-239.5 -45q-262 0 -262 105z" />
<glyph unicode="K" horiz-adv-x="1296" d="M117 29q0 6 207 1691q8 66 83.5 66t75.5 -49l-90 -742h96q88 0 179.5 49.5t164 128t130.5 175.5q120 197 120 371q0 67 78 67h1q77 0 77 -64q0 -219 -144.5 -443t-346.5 -327l-3 -14q133 -55 207 -219q41 -92 70 -184.5t39 -120.5l127 -371q2 -6 2 -23.5t-23.5 -33 t-73 -15.5t-63.5 45l-143 422q-10 29 -29.5 88.5t-28 82t-26 66.5t-30.5 61.5t-34.5 47t-45 41t-56.5 27.5q-49 22 -153 22h-9h-98q-4 -39 -41 -336.5t-62 -500.5q-8 -66 -82.5 -66t-74.5 58z" />
<glyph unicode="L" horiz-adv-x="1073" d="M115 51v12l198 1657q8 66 83 66t75 -51v-15l-190 -1589h723q55 0 55 -61q0 -31 -16.5 -50.5t-41.5 -19.5h-821q-66 0 -65 51z" />
<glyph unicode="M" horiz-adv-x="1798" d="M74 16v15l278 1691q12 68 105 68h22q33 0 59.5 -18.5t32.5 -49.5l267 -1427l594 1427q25 63 100 64h37q82 0 82 -64l-129 -1691q-6 -59 -86 -60q-37 0 -52.5 12.5t-15.5 47.5l115 1446l-572 -1420q-23 -57 -94 -57q-29 0 -57.5 13.5t-34.5 43.5l-264 1426l-232 -1452 q-10 -60 -92 -60q-35 0 -49 9.5t-14 35.5z" />
<glyph unicode="N" horiz-adv-x="1556" d="M117 16.5q0 22.5 4 63.5l196 1642q8 63 91 64h45q66 0 84 -51l575 -1450l166 1392q6 59 15.5 79t25.5 25t52 5t52.5 -12.5t16.5 -34t-4 -62.5l-201 -1642q-6 -63 -80 -64h-39q-68 0 -90 56l-580 1462l-167 -1409q-9 -68 -25 -88.5t-60 -20.5t-60.5 11.5t-16.5 34z" />
<glyph unicode="O" horiz-adv-x="1503" d="M86 657q0 317 107 596q59 152 144 268.5t218 190.5t292 74t271.5 -53.5t176 -148.5t93 -214t29.5 -253t-17.5 -259t-54 -254t-98 -241.5t-143.5 -200.5t-199 -139.5t-262 -51.5t-257 53.5t-177 149.5q-123 184 -123 483zM252 645q0 -219 88 -373q98 -170 336 -170 q121 0 225.5 74t169 184.5t107.5 251.5q75 247 75 499v7q0 219 -90 373q-45 80 -129 125t-204.5 45t-225 -74t-169 -184.5t-107.5 -251.5q-76 -250 -76 -506z" />
<glyph unicode="P" horiz-adv-x="1318" d="M117 23q0 4 207 1683q6 41 61 49q276 31 387 31q248 0 393.5 -115t145.5 -332q0 -154 -73 -270.5t-198 -183.5q-246 -133 -600 -133q-53 0 -80 2l-86 -717q-8 -66 -82.5 -66t-74.5 52zM381 895q764 0 764 444q0 156 -99.5 237t-259 81t-315.5 -21z" />
<glyph unicode="Q" horiz-adv-x="1492" d="M80 657q0 317 108 596q57 152 142.5 268.5t218.5 190.5t291.5 74t271.5 -53.5t176 -147.5q123 -184 123 -477t-95 -575.5t-290 -434.5l184 -178q49 -47 61.5 -63.5t12.5 -45t-26.5 -50t-55 -21.5t-98.5 67l-217 209q-113 -45 -254 -45t-253 53.5t-175 149.5 q-125 184 -125 483zM246 645q0 -219 90 -373q45 -79 129 -124.5t172 -45.5t143 19l-100 96q-78 78 -78 111.5t25.5 56.5t50 23t46 -16.5t73.5 -67.5l129 -125q113 90 188 266q133 303 133 653q0 219 -88 373q-47 80 -131 125t-205 45t-225 -74t-168.5 -184.5t-107.5 -251.5 q-76 -250 -76 -506z" />
<glyph unicode="R" horiz-adv-x="1431" d="M117 23v8l207 1677q6 41 55 47q152 31 399.5 31t391 -100.5t143.5 -296.5q0 -166 -117 -289t-319 -162q135 -57 208 -221q35 -82 67 -181.5t40 -121.5l127 -371q2 -6 2 -23.5t-23.5 -33t-58.5 -15.5q-63 0 -78 45l-143 422q-55 164 -99.5 257t-104.5 132t-206 39h-233 l-103 -839q-4 -31 -22 -43.5t-57 -12.5q-76 0 -76 52zM393 1001h240q164 0 328 86q82 43 134 121t52 176q0 129 -107.5 203t-269.5 74t-299 -25z" />
<glyph unicode="S" horiz-adv-x="1220" d="M35 303q0 84 65 84q23 0 38.5 -15.5t34.5 -56.5t30 -57q109 -156 319 -156q168 0 274.5 97.5t106.5 253.5q0 162 -237 340q-98 74 -197.5 151.5t-169.5 181t-70 220.5q0 209 149 324.5t376 115.5q152 0 280.5 -74t128.5 -144.5t-57 -70.5q-37 0 -127 80 q-35 31 -100.5 55.5t-145.5 24.5q-152 0 -245 -83t-93 -224q0 -154 238 -328q98 -72 196.5 -149.5t168 -184t69.5 -227.5q0 -227 -148.5 -358.5t-382 -131.5t-380.5 127q-49 41 -85 101.5t-36 103.5z" />
<glyph unicode="T" horiz-adv-x="1054" d="M74 1686q0 75 74 75h2h940q66 0 65 -55q0 -74 -74 -74h-395l-197 -1595q-8 -66 -82.5 -66t-74.5 58q0 8 196 1603h-387q-68 0 -67 54z" />
<glyph unicode="U" horiz-adv-x="1517" d="M115 461q0 74 14 198l135 1074q10 53 82 53t72 -53l-129 -1074q-14 -123 -15 -192q0 -178 81 -269.5t282 -91.5q131 0 216 37t133 119t69.5 168t40.5 229l131 1074q10 53 82.5 53t72.5 -53l-129 -1074q-23 -178 -57.5 -294.5t-101.5 -210.5q-133 -182 -476 -183 q-274 0 -388.5 124t-114.5 366z" />
<glyph unicode="V" horiz-adv-x="1277" d="M135 1735q0 51 78 51q41 0 61.5 -12.5t26.5 -47.5l231 -1523l578 1390q6 16 21.5 53t23.5 57.5t21 43.5q25 39 55.5 39t60 -16.5t29.5 -50t-90 -244.5l-606 -1444q-25 -59 -115 -59q-1 0 -1 -1q-89 0 -101 60l-271 1687z" />
<glyph unicode="W" horiz-adv-x="1972" d="M135 1735q0 51 78 51q41 0 61.5 -12.5t26.5 -47.5l231 -1523l465 1519q18 63 70 64h8q41 0 61.5 -12.5t26.5 -47.5l234 -1523l467 1526q0 2 3 10t4 11t5 10t7 10.5t9 7.5q8 8 36 8t59.5 -16.5t31.5 -51.5q0 -8 -75 -250l-455 -1437q-27 -59 -115 -59q-1 0 -1 -1 q-87 0 -103 60l-221 1386l-424 -1386q-27 -59 -116 -59q-1 0 -1 -1q-88 0 -100 60l-271 1687z" />
<glyph unicode="X" horiz-adv-x="1310" d="M-84 39q0 29 21 53l636 840q-352 795 -352 803q0 51 82 51q39 0 59.5 -12.5t36.5 -47.5l281 -659l489 666q41 53 91 53q71 0 71 -66q0 -27 -18 -49l-568 -741l316 -727q59 -135 59 -166t-20.5 -48.5t-59.5 -17.5t-59 27t-63 129l-279 661l-555 -757q-43 -59 -96 -60 q-29 0 -50.5 19.5t-21.5 48.5z" />
<glyph unicode="Y" horiz-adv-x="1220" d="M121 1735q0 51 82 51q39 0 57.5 -12.5t32.5 -47.5l289 -757l557 780q27 37 80 37q79 0 79 -56q0 -38 -22 -67l-637 -858l-96 -768q-8 -66 -83 -66t-75 47q0 14 2 31l92 762l-356 907z" />
<glyph unicode="Z" horiz-adv-x="1277" d="M45 100q750 1208 853 1368t106 164h-760q-66 0 -66 54q0 75 72 75h2h889q65 0 65 -53v-2q0 -29 -10 -45l-952 -1532h860q66 0 65 -55q0 -74 -73 -74h-996q-65 0 -65 53q0 16 10 47z" />
<glyph unicode="[" horiz-adv-x="888" d="M123 -129l229 1995q7 53 64 53h418q55 0 55 -64q0 -31 -16.5 -50t-41.5 -19h-329l-213 -1845h313q55 0 55 -64q0 -31 -16 -50.5t-41 -19.5h-412q-66 0 -65 54v10z" />
<glyph unicode="\" horiz-adv-x="987" d="M127 1800q0 35 55 35q84 0 101 -53l530 -1792q10 -31 10 -39q0 -29 -49 -29q-90 0 -106 51l-531 1784q-10 35 -10 43z" />
<glyph unicode="]" horiz-adv-x="888" d="M0 -129q0 31 16.5 50.5t40.5 19.5h330l213 1845h-313q-55 0 -56 63q0 31 16.5 50.5t41.5 19.5h411q66 0 66 -53v-11l-229 -1994q-7 -54 -64 -54h-418q-55 0 -55 64z" />
<glyph unicode="^" horiz-adv-x="1206" d="M225 940q0 25 107 229l266 517q27 53 105.5 53t91.5 -53l192 -736l2 -14q0 -47 -65 -47q-35 0 -50.5 10t-23.5 43l-166 621l-254 -500q-55 -111 -79.5 -142.5t-53.5 -31.5q-72 0 -72 51z" />
<glyph unicode="_" horiz-adv-x="985" d="M0 -120.5q0 59.5 51 59.5h889q20 0 32.5 -16.5t12.5 -39.5q0 -63 -55 -63h-893q-37 0 -37 59.5z" />
<glyph unicode="`" horiz-adv-x="618" d="M102 1570q0 29 27 55t56.5 26t41.5 -15l281 -331q8 -12 8 -31t-15.5 -34t-35 -15t-29.5 10l-307 281q-27 25 -27 54z" />
<glyph unicode="a" horiz-adv-x="1026" d="M78 221q0 170 156.5 287t515.5 139q10 61 10 127q0 127 -189 127q-94 0 -191 -39t-101 -39q-27 0 -43.5 32t-16.5 66.5t127 75.5t252 41t222.5 -56t97.5 -179q0 -55 -38 -273.5t-38 -300.5t11 -135t11 -65q0 -25 -41 -41.5t-78 -16.5q-45 0 -45 185v53 q-59 -117 -157.5 -177.5t-207 -60.5t-183 65.5t-74.5 184.5zM240 252q0 -61 42 -103.5t111 -42.5q127 0 215 128t115 290q-262 -20 -372.5 -89.5t-110.5 -182.5z" />
<glyph unicode="b" horiz-adv-x="1126" d="M141 59l209 1704q6 53 80 53q1 0 2 1q72 0 72 -43l-113 -906q72 88 147.5 129t182.5 41q152 0 239 -116.5t87 -288.5q0 -244 -168 -445q-82 -96 -221.5 -156.5t-328 -60.5t-188.5 88zM299 102q29 -4 86 -4q162 0 277.5 83t166 198t50.5 236.5t-56.5 204.5t-150.5 83 q-274 0 -338 -516z" />
<glyph unicode="c" horiz-adv-x="935" d="M109 441.5q0 230.5 149 413.5t395 183q113 0 193 -43t80 -80q0 -31 -23.5 -58.5t-42 -27.5t-41.5 21q-68 61 -168 61t-175 -43t-116 -114q-84 -145 -84 -314.5t71 -255.5t206 -86q61 0 121.5 27t95.5 54.5t37 27.5q23 0 38 -31t15 -61q0 -37 -107.5 -90.5t-207.5 -53.5 q-213 0 -324.5 120t-111.5 350.5z" />
<glyph unicode="d" horiz-adv-x="1085" d="M86 342q0 197 94 363q55 96 138 168.5t218.5 118.5t305.5 46l92 731q2 47 94 48q57 0 57 -48l-163 -1345q-9 -94 -9 -167q1 -73 19 -145q18 -74 18 -83q0 -25 -39 -41.5t-63.5 -16.5t-35.5 18.5t-18.5 50.5t-10.5 61.5t-6 63.5t-5 44q-47 -111 -150.5 -174.5 t-226.5 -63.5t-216 94.5t-93 276.5zM254 360q0 -109 51 -181.5t150 -72.5q274 0 338 517l34 282q-14 6 -49 6q-225 0 -374.5 -161.5t-149.5 -389.5z" />
<glyph unicode="e" horiz-adv-x="944" d="M109 424q0 150 55 272.5t139 194.5q176 147 365 147q113 0 184.5 -54t71.5 -155q0 -180 -187.5 -293.5t-462.5 -113.5q0 -154 72 -239t207 -85q63 0 122.5 27t94.5 55l35 27q23 0 39 -31t16 -61q0 -37 -107.5 -90.5t-207.5 -53.5q-213 0 -324.5 118t-111.5 335zM283 543 q190 0 340.5 75.5t150.5 190.5q0 51 -31.5 78.5t-83.5 27.5q-111 0 -229.5 -101t-146.5 -271z" />
<glyph unicode="f" horiz-adv-x="675" d="M-385 -575q0 27 27.5 61.5t54.5 34.5q2 0 28.5 -21.5t80 -43t111.5 -21.5t94 12t67 51t50 89.5t40 146.5q27 133 68 479l75 659h-164q-27 0 -41 18.5t-14 44.5t20.5 50.5t43.5 24.5h172l26 233q35 322 138 449q93 114 259 114h3q92 0 176 -22.5t84 -48.5q0 -31 -22.5 -70 t-49.5 -39q-2 0 -24 10q-68 29 -145 29t-121 -28.5t-67.5 -65.5t-41.5 -107q-23 -82 -41 -235l-27 -219h201q47 0 47 -62q0 -27 -18 -51.5t-43 -24.5h-205l-123 -1058q-41 -379 -232 -478q-76 -41 -184 -41t-205.5 46.5t-97.5 83.5z" />
<glyph unicode="g" horiz-adv-x="1073" d="M6 -572.5q0 27.5 17.5 67.5t44.5 40q2 0 17 -11t42 -26.5t61 -29.5q82 -39 194 -39t181.5 59t108.5 207.5t63 445.5q-67 -92 -143 -131t-198 -39t-215 94.5t-93 276.5q0 197 94 363q55 96 138 168.5t218.5 118.5t292 46t156.5 -90l-143 -1134q-31 -246 -136.5 -381 t-336.5 -135q-88 0 -176.5 22.5t-137.5 51t-49 56zM254 360q0 -109 51 -181.5t150 -72.5q274 0 338 517l34 282q-14 6 -49 6q-225 0 -374.5 -161.5t-149.5 -389.5z" />
<glyph unicode="h" horiz-adv-x="1165" d="M141 12l209 1751q8 53 81 53q1 0 2 1q71 0 71 -43l-107 -922q131 186 332 186q156 0 239 -72.5t83 -199.5q0 -18 -95 -743q-6 -51 -100 -52q-53 0 -53 41l86 711l4 31q0 149 -182 149h-2q-152 0 -246 -138t-123 -366l-47 -376q-6 -51 -96 -52q-31 0 -43.5 8.5t-12.5 32.5 z" />
<glyph unicode="i" horiz-adv-x="499" d="M141 12l117 975q6 51 80 51t74 -41l-119 -974q-6 -52 -96 -52q-31 0 -43.5 8.5t-12.5 32.5zM285 1368q0 125 116 125q93 0 93 -76q0 -127 -117 -127q-92 0 -92 78z" />
<glyph unicode="j" horiz-adv-x="495" d="M-459 -575q0 29 29 62.5t55 33.5q2 0 29 -21.5t80 -43t121 -21.5q156 0 205 138t104 642l86 772q6 51 98 51q53 0 53 -41l-139 -1183q-14 -117 -35.5 -200t-65.5 -161t-121 -116.5t-188.5 -38.5t-211 45t-99.5 82zM285 1368q0 125 116 125q93 0 93 -76q0 -127 -117 -127 q-92 0 -92 78z" />
<glyph unicode="k" horiz-adv-x="964" d="M139 12l209 1751q8 53 80 53q1 0 2 1q70 0 70 -43l-138 -1160q264 236 353.5 322t100.5 93t30.5 8t43.5 -21q25 -22 24 -49q0 -27 -74 -101t-318 -280l215 -305q90 -121 127 -155t48.5 -47t11.5 -36t-29 -55.5t-49 -32.5q-70 0 -209 203l-225 331l-72 -59l-49 -407 q-6 -51 -98 -52q-53 0 -54 41z" />
<glyph unicode="l" horiz-adv-x="499" d="M141 12l209 1751q8 53 81 53q1 0 2 1q71 0 71 -43l-211 -1751q-6 -52 -96 -52q-31 0 -43.5 8.5t-12.5 32.5z" />
<glyph unicode="m" horiz-adv-x="1716" d="M141 12l117 975q6 51 80 51t74 -41l-19 -143h13q137 184 307 184q104 0 178 -50t94 -136h10q127 186 322 186q129 0 204.5 -73.5t75.5 -198.5q0 -33 -94 -743q-6 -51 -92 -52q-53 0 -53 41l86 748q0 57 -41 100t-129 43q-139 0 -219 -138t-109 -366l-47 -376 q-6 -51 -98 -52q-55 0 -56 41l93 748q0 57 -40 100t-128 43q-139 0 -221 -139t-109 -365l-47 -376q-6 -51 -96 -52q-31 0 -43.5 8.5t-12.5 32.5z" />
<glyph unicode="n" horiz-adv-x="1165" d="M141 12l117 975q6 51 80 51t74 -41l-19 -143h13q127 184 323 184q156 0 239 -72.5t83 -199.5q0 -18 -95 -743q-6 -51 -100 -52q-53 0 -53 41l86 711l4 31q0 149 -182 149h-2q-152 0 -246 -138t-123 -366l-47 -376q-6 -51 -96 -52q-31 0 -43.5 8.5t-12.5 32.5z" />
<glyph unicode="o" horiz-adv-x="1116" d="M109 424q0 223 124 410q63 92 171 148t245 56q190 0 296 -133t106 -325q0 -254 -150.5 -431.5t-390.5 -177.5q-190 0 -293.5 130t-107.5 323zM272 421q0 -134 63.5 -228.5t206 -94.5t247 137.5t104.5 309.5t-65.5 269t-187.5 97t-208 -74.5t-123 -178t-37 -237.5z" />
<glyph unicode="p" horiz-adv-x="1136" d="M57 -676l205 1663q6 31 27.5 41t73 10t51.5 -41l-15 -145q133 186 332 186q133 0 226.5 -94t93.5 -276q0 -199 -97 -365q-53 -96 -135 -168t-217 -118t-305 -46l-86 -637q-6 -51 -98 -51q-55 0 -56 41zM311 102q16 -4 51 -4q223 0 373 162t150 387q0 109 -51.5 182.5 t-149.5 73.5q-281 0 -340 -516z" />
<glyph unicode="q" horiz-adv-x="1077" d="M86 342q0 297 219 512q184 184 490 184q102 0 146 -13t44 -64q0 -8 -139 -1164q174 37 180 37q35 0 35 -52t-49 -63l-181 -36l-38 -349q-5 -51 -95 -51q-61 0 -61 39l37 326q-141 -31 -152 -31q-45 0 -45 51t53 62l158 34l47 377q-115 -170 -327 -170q-158 0 -240 100.5 t-82 270.5zM254 360q0 -109 51 -181.5t150 -72.5q274 0 338 517l34 282q-14 6 -49 6q-225 0 -374.5 -161.5t-149.5 -389.5z" />
<glyph unicode="r" horiz-adv-x="772" d="M141 12l117 975q6 51 80 51t74 -41l-21 -153h10q57 94 149.5 151.5t192.5 57.5q60 0 60 -45q0 -41 -19 -66q-26 -39 -75 -39q-150 0 -247 -148.5t-122 -355.5l-47 -376q-6 -51 -96 -52q-31 0 -43.5 8.5t-12.5 32.5z" />
<glyph unicode="s" horiz-adv-x="761" d="M53 96q0 35 15.5 67t44.5 32q2 0 33.5 -24t91 -48.5t125 -24.5t120 33t54.5 95.5t-38 114.5t-93.5 94t-110.5 86t-93 106.5t-38 134.5q0 111 83 193.5t197.5 82.5t184 -29.5t69.5 -62.5t-15 -63.5t-40 -30.5q-2 0 -25 14q-72 45 -149.5 45t-117.5 -35.5t-40 -93 t39 -106.5t95.5 -92t112.5 -89t95 -109.5t39 -135.5q0 -111 -86 -195t-219 -84t-233.5 45t-100.5 80z" />
<glyph unicode="t" horiz-adv-x="651" d="M141 932q0 29 17.5 53.5t42.5 24.5h121l36 315q4 31 39 49.5t68 18.5t41 -4.5t8 -20.5l-43 -358h191q47 0 47 -62q0 -27 -18.5 -51.5t-43.5 -24.5h-194l-54 -448q-10 -82 -10 -160t17.5 -151.5t17.5 -83.5q0 -25 -38 -41.5t-71.5 -16.5t-55 81t-21.5 168t12 204l53 448 h-117q-45 0 -45 60z" />
<glyph unicode="u" horiz-adv-x="1073" d="M129 289q0 76 78 698q6 51 80.5 51t74.5 -41q-78 -592 -77 -704q0 -186 159 -187q82 0 145.5 47.5t102.5 127.5q70 150 94 342l45 364q6 51 97 51q59 0 59 -41l-72 -573q-8 -66 -8 -152t17.5 -159.5t17.5 -83.5q0 -25 -38 -41.5t-62.5 -16.5t-35.5 18.5t-18.5 51.5 t-11.5 59q-10 68 -10 109q-115 -238 -365 -238q-135 0 -203.5 88t-68.5 230z" />
<glyph unicode="v" horiz-adv-x="960" d="M115 991q0 47 71 47q45 0 60.5 -15t21.5 -62l115 -838q330 203 397 823q0 60 17.5 76t58.5 16t52.5 -16t11.5 -76q0 -209 -94.5 -439.5t-237 -383t-271.5 -152.5q-70 0 -73 78z" />
<glyph unicode="w" horiz-adv-x="1554" d="M115 991q0 47 71 47q45 0 60.5 -15t21.5 -62l115 -838q240 143 371 530l-45 338q0 47 71 47q45 0 60.5 -15t21.5 -62l115 -838q152 74 273.5 332t121.5 508q0 49 17.5 62t59.5 13t53 -16t11 -76q0 -209 -94 -439.5t-236.5 -383t-271.5 -152.5q-63 0 -73 78l-54 373 q-96 -197 -223 -324t-244 -127q-63 0 -73 78z" />
<glyph unicode="x" horiz-adv-x="1095" d="M41 45.5q0 22.5 37 52.5q201 178 389 410l-94 203q-33 72 -69 119t-58 59q-51 31 -51 55.5t31.5 59t52.5 34.5q47 0 106 -53t100 -147l90 -201q137 174 251 287.5t147 113.5t57.5 -26.5t24.5 -49t-35 -53.5q-203 -178 -387 -399l110 -229q35 -70 71 -116t58 -59 q52 -31 52 -56q0 -24 -32 -59q-32 -36 -52 -36q-47 0 -105.5 53t-103.5 150l-107 223q-135 -176 -252.5 -293t-149.5 -117t-56.5 26t-24.5 48.5z" />
<glyph unicode="y" horiz-adv-x="1019" d="M-135 -575q0 29 28.5 62.5t55.5 33.5l26 -21q27 -23 81.5 -44t141.5 -21t152 49q133 100 266 676q-162 -188 -278 -189q-63 0 -74 78l-129 942q0 47 72 47q45 0 60.5 -15t21.5 -62l114 -846q76 25 176.5 150.5t141.5 281.5l117 440q14 51 106 51q29 0 38 -8t9 -33 l-323 -1183q-102 -375 -310 -478q-81 -39 -186 -39q-1 0 -2 1q-107 0 -206 45t-99 82z" />
<glyph unicode="z" horiz-adv-x="944" d="M25 49q0 33 24 57l658 766h-478q-23 0 -38 19.5t-15 44.5t19.5 49.5t44.5 24.5h645q45 -1 45 -62q0 -33 -21 -53q0 -2 -2 -6l-663 -768h557q45 0 45 -58q0 -29 -17.5 -53t-42.5 -24h-710q-51 0 -51 63z" />
<glyph unicode="{" horiz-adv-x="888" d="M10 864q0 31 16.5 50.5t41.5 19.5h176l51 442q33 297 90 389q72 121 170 154q61 20 150.5 20t155 -25.5t65.5 -67.5t-19.5 -63.5t-43 -21.5t-73 18.5t-103.5 18.5t-94 -24.5t-62.5 -56t-38.5 -93.5q-20 -88 -35 -215l-45 -399q-12 -121 -125 -142l-2 -8q92 -20 92 -139 q0 -27 -30 -267.5t-30 -320.5q0 -205 156 -205q55 0 107.5 18.5t66.5 18.5q57 0 58 -53q0 -59 -72 -92t-184 -33q-164 0 -226.5 85t-62.5 241q0 90 18 237l51 451h-163q-55 0 -56 63z" />
<glyph unicode="|" horiz-adv-x="987" d="M307 -37l219 1819q8 53 81 53t73 -43l-221 -1819q-7 -51 -97 -51q-31 0 -43 8.5t-12 32.5z" />
<glyph unicode="}" horiz-adv-x="888" d="M-37 -122q0 42 19.5 63.5t43 21.5t72.5 -18.5t103.5 -18.5t94.5 24.5t62.5 56.5t38.5 93q20 88 35 215l45 400q12 121 125 141l2 8q-92 20 -92 140q0 27 29.5 267t29.5 320q0 205 -155 205q-55 0 -107.5 -18.5t-66.5 -18.5q-57 0 -58 53q0 59 72 92t184 33 q164 0 226.5 -85t62.5 -240q0 -90 -18 -238l-52 -450h164q55 0 56 -64q0 -31 -16.5 -50t-41.5 -19h-176l-51 -443q-33 -297 -90 -389q-72 -121 -170 -154q-61 -20 -150.5 -20t-155 25.5t-65.5 67.5z" />
<glyph unicode="~" d="M180 846q0 53 93.5 89t180.5 36t244.5 -61.5t234.5 -61.5t144.5 33.5t71.5 33.5q45 0 45 -73q0 -53 -92 -89t-179 -36t-245 61.5t-234.5 61.5t-144.5 -34t-72 -34q-47 0 -47 74z" />
<glyph unicode="&#xa1;" horiz-adv-x="604" d="M94 -653q0 16 10 88l162 1112q6 49 66.5 49t60.5 -37q0 -20 -2 -39l-115 -1159q-6 -80 -94 -80t-88 66zM274 877q0 127 117 127q92 0 92 -78q0 -125 -116 -125q-93 0 -93 76z" />
<glyph unicode="&#xa2;" d="M313 798.5q0 198.5 136.5 378t332.5 212.5l45 299q10 68 66 67q33 0 45 -7t12 -31.5t-6 -55.5l-41 -268q96 -11 161.5 -49.5t65.5 -70.5t-23.5 -59.5t-41.5 -27.5t-37 18q-63 55 -143 62l-119 -811q61 2 118.5 28.5t91.5 53t36 26.5q23 0 38 -30.5t15 -61.5 q0 -37 -107.5 -90t-209.5 -53l-43 -289q-8 -68 -72 -68q-51 0 -51 41q0 16 6 56l39 270q-154 33 -234 147.5t-80 313zM481 780q0 -246 166 -307l117 780q-131 -39 -207 -176t-76 -297z" />
<glyph unicode="&#xa3;" horiz-adv-x="1404" d="M102 874.5q0 26.5 15.5 49t44.5 22.5h194l19 164q18 166 55 282.5t107 209.5q139 184 464 184q86 0 155 -24.5t69 -80.5q0 -25 -17.5 -44t-42 -19t-62.5 10t-87 10q-266 0 -369 -159q-51 -82 -76.5 -175.5t-42.5 -234.5l-14 -123h438q25 0 39.5 -18.5t14.5 -45t-16.5 -47 t-45.5 -20.5h-444l-78 -682h743q55 0 56 -63q0 -31 -16.5 -50.5t-41.5 -19.5h-841q-66 0 -66 53l84 762h-195q-18 0 -30.5 16.5t-12.5 43z" />
<glyph unicode="&#xa4;" d="M47 305.5q0 22.5 14 40.5l220 219q-58 97 -58 230q0 188 99 333l-203 248q-14 18 -14.5 44t22.5 48.5t51.5 22.5t38.5 -10l201 -248q131 104 323 104q133 0 234 -69l217 215q12 12 41 12t51.5 -23.5t22.5 -52t-19 -39.5l-217 -219q59 -102 59 -231q0 -188 -104 -332 l209 -252q14 -18 14 -42.5t-22.5 -48.5t-51 -24t-38.5 11l-209 254q-133 -104 -318 -105q-135 0 -235 70l-215 -219q-10 -10 -36 -10.5t-51.5 25.5t-25.5 48.5zM385 823.5q0 -139.5 59.5 -219.5t193.5 -80t234.5 116t100.5 260t-62.5 225t-183.5 81q-160 0 -251 -121.5 t-91 -261z" />
<glyph unicode="&#xa5;" d="M145 631q0 31 16.5 54.5t43.5 23.5h360l13 102l-62 158h-280q-20 0 -31.5 19.5t-11.5 46t18 48t43 21.5h209l-232 590l-2 16q0 51 82 51q39 0 57.5 -12t32.5 -47l279 -733l498 755q27 37 79 37q80 0 80 -57q0 -37 -22 -66l-371 -534h209q55 0 55 -64q0 -27 -17 -49 t-42 -22h-299l-113 -164l-12 -96h389q18 0 31.5 -17.5t13.5 -44t-16.5 -50.5t-46.5 -24h-387l-68 -536q-8 -66 -83 -66t-75 47q0 14 2 31l64 524h-361q-43 0 -43 58z" />
<glyph unicode="&#xa6;" horiz-adv-x="987" d="M307 -37l84 701q8 53 81 53t73 -43l-86 -701q-7 -51 -97 -51q-31 0 -43 8.5t-12 32.5zM442 1081l84 701q8 53 81 53t73 -43l-86 -700q-6 -52 -96 -52q-31 0 -43.5 8.5t-12.5 32.5z" />
<glyph unicode="&#xa7;" horiz-adv-x="1038" d="M74 155.5q0 65.5 59 65.5q33 0 100 -63q25 -25 75 -44.5t112 -19.5q117 0 183.5 55.5t66.5 163.5q0 115 -158 219q-66 45 -131.5 93.5t-111.5 121t-46 162.5q0 193 137 305q-123 109 -122 244q0 170 110.5 264.5t315.5 94.5q119 0 220 -60.5t101 -125t-59 -64.5 q-33 0 -99 63q-27 25 -77 44.5t-111 19.5q-117 0 -183.5 -55.5t-66.5 -165.5q0 -111 156 -220q66 -43 131 -91t111.5 -120.5t46.5 -162.5q0 -197 -136 -306q123 -113 123 -245q0 -170 -109.5 -263.5t-316.5 -93.5q-119 0 -220 59.5t-101 125zM375 926q0 -57 34.5 -108.5 t68.5 -79t108 -79.5q98 72 98 203q0 55 -35 107.5t-69.5 80t-106.5 76.5q-98 -72 -98 -200z" />
<glyph unicode="&#xa8;" horiz-adv-x="806" d="M102 1368q0 125 117 125q92 0 92 -76q0 -127 -116 -127q-92 0 -93 78zM496 1368q0 125 116 125q93 0 93 -76q0 -127 -117 -127q-92 0 -92 78z" />
<glyph unicode="&#xa9;" horiz-adv-x="1638" d="M123 1069q0 254 106 467q59 117 146.5 204t225.5 141t308 54q305 0 486.5 -162.5t181.5 -478.5q0 -254 -107 -469q-59 -117 -146 -203.5t-225 -141t-314.5 -54.5t-309.5 51t-209 141q-143 176 -143 451zM246 1061q0 -238 129 -390.5t416 -152.5q143 0 259.5 49t190.5 127 t123 183q90 188 90 417q0 270 -147.5 409.5t-397.5 139.5q-143 0 -260 -48t-190.5 -126t-122.5 -182q-90 -188 -90 -426zM457 1069q0 227 104 412q53 94 149.5 151.5t241 57t242.5 -100.5q45 -47 45 -69.5t-26.5 -43t-42 -20.5t-34 19.5t-38 43t-63.5 43t-118.5 19.5 t-145.5 -53t-107 -135q-76 -162 -76 -304.5t61.5 -222.5t184.5 -80q70 0 124 24t78 54q68 76 89.5 76t40 -15.5t18.5 -37.5q0 -61 -110.5 -139t-248.5 -78q-193 0 -280.5 108.5t-87.5 290.5z" />
<glyph unicode="&#xaa;" horiz-adv-x="962" d="M147.5 800.5q0.5 59.5 53.5 59.5h555q23 0 35 -17.5t12 -41t-15.5 -42t-39.5 -18.5h-562q-39 0 -38.5 59.5zM184 1174q0 127 117 215t383 106q6 33 6 88q0 88 -133 88q-74 0 -139.5 -29.5t-83 -29.5t-31.5 26.5t-14 54t97 59.5t191.5 32t168 -42t73.5 -138 q0 -33 -28.5 -193t-28.5 -230.5t8 -109.5t8 -41q0 -20 -31.5 -34.5t-60.5 -14.5q-41 0 -41 158q-47 -78 -116.5 -118t-149.5 -40t-137.5 50t-57.5 143zM317 1196q0 -43 30 -72.5t77 -29.5q90 0 152.5 90t85.5 207q-344 -29 -345 -195z" />
<glyph unicode="&#xab;" horiz-adv-x="1134" d="M133 570.5q0 50.5 33 80.5l381 346q18 18 42.5 18.5t44 -24t19.5 -46t-10 -32.5l-324 -331v-15l218 -301q16 -23 16 -47t-22.5 -51t-46 -27t-31.5 13l-277 317q-43 49 -43 99.5zM543 570.5q0 50.5 32 80.5l381 346q18 18 43 18.5t44.5 -24t19.5 -46t-10 -32.5l-324 -331 v-15l217 -301q16 -23 16.5 -47t-22 -51t-46.5 -27t-32 13l-276 317q-43 49 -43 99.5z" />
<glyph unicode="&#xac;" d="M172 834q0 31 14 53t41 22h936q41 0 41 -57q0 -12 -57 -471q-2 -27 -26.5 -41t-67.5 -14t-43 30q0 18 49 418h-850q-37 0 -37 60z" />
<glyph unicode="&#xad;" horiz-adv-x="937" d="M139.5 548.5q0.5 59.5 53.5 59.5h555q23 0 35 -17.5t12 -41t-15.5 -42t-40.5 -18.5h-561q-39 0 -38.5 59.5z" />
<glyph unicode="&#xae;" horiz-adv-x="1638" d="M123 1069q0 254 106 467q59 117 146.5 204t225.5 141t308 54q305 0 486.5 -162.5t181.5 -478.5q0 -254 -107 -469q-59 -117 -146 -203.5t-225 -141t-314.5 -54.5t-309.5 51t-209 141q-143 176 -143 451zM246 1061q0 -238 129 -390.5t416 -152.5q143 0 259.5 49t190.5 127 t123 183q90 188 90 417q0 270 -147.5 409.5t-397.5 139.5q-143 0 -260 -48t-190.5 -126t-122.5 -182q-90 -188 -90 -426zM506 743l108 904q4 35 62.5 48t232.5 13q324 0 324 -231q0 -96 -81 -191.5t-187 -111.5q35 -25 61.5 -62t35.5 -57.5t30.5 -87t49 -145.5t27.5 -93 t-19.5 -27.5t-45.5 -13.5q-53 0 -66 39l-57 164q-43 123 -73.5 169t-64.5 59.5t-83 13.5h-80l-47 -396q-4 -29 -19.5 -39t-46.5 -10q-61 0 -61 55zM694 1247h119q98 0 191.5 53.5t93.5 153.5q0 68 -58.5 106.5t-141.5 38.5t-163 -14z" />
<glyph unicode="&#xaf;" horiz-adv-x="835" d="M133 1389q0 69 76 69h446q47 0 47 -55q0 -70 -75 -70h-447q-47 0 -47 56z" />
<glyph unicode="&#xb0;" horiz-adv-x="1017" d="M143 1306q0 128 43 229t146.5 175t256 74t239.5 -100.5t87 -245.5q0 -190 -122.5 -323.5t-319.5 -133.5q-160 0 -245 98.5t-85 226.5zM281 1347.5q0 -118.5 51 -186t164.5 -67.5t198.5 98t85 221t-53 191.5t-156 68.5q-135 0 -212.5 -103.5t-77.5 -222z" />
<glyph unicode="&#xb1;" d="M88 172q0 31 14 53.5t41 22.5h936q41 0 41 -58q0 -29 -16.5 -53t-40.5 -24h-938q-37 0 -37 59zM176 870.5q0 67.5 55 67.5h402l47 412q6 49 72 49q25 0 44 -11.5t19 -23.5t-49 -426h397q20 0 32.5 -19.5t12.5 -46t-16 -48t-41 -21.5h-401l-56 -438q-6 -47 -69.5 -47.5 t-63.5 40.5q0 2 10 82l43 363h-397q-41 0 -41 67.5z" />
<glyph unicode="&#xb2;" horiz-adv-x="948" d="M104 901q0 35 23 57l233 220q142 133 215.5 234t73.5 195.5t-46 139.5t-130 45t-156 -76q-37 -45 -75 -45q-57 0 -57.5 55.5t84.5 119t217 63.5t215 -75t83 -212t-93 -268t-245 -269l-137 -124h412q25 0 41 -15.5t16 -40.5q0 -63 -69 -63h-535q-70 0 -70 59z" />
<glyph unicode="&#xb3;" horiz-adv-x="948" d="M57 1063q0 25 16.5 41t50.5 16t46 -33q57 -141 219 -141q102 0 174 57.5t72 152.5t-80 148.5t-178 53.5q-25 0 -41.5 12.5t-16.5 32.5q0 57 71 57t153 55.5t82 131.5q0 145 -164 145q-82 0 -170 -68q-31 -23 -49 -22q-51 0 -51.5 56.5t92 103.5t204 47t195.5 -66.5 t84 -185.5q0 -76 -53.5 -145.5t-124.5 -94.5q70 -20 127 -99t57 -159q0 -164 -108.5 -249t-284.5 -85q-127 0 -224.5 77t-97.5 161z" />
<glyph unicode="&#xb4;" horiz-adv-x="618" d="M102 1273.5q0 18.5 9 31.5l280 331q12 14 42 14.5t56.5 -25.5t26.5 -55.5t-27 -53.5l-307 -281q-10 -10 -29.5 -10t-35 15t-15.5 33.5z" />
<glyph unicode="&#xb5;" horiz-adv-x="1073" d="M72 -231q0 309 88 903q41 266 47 316t80.5 50t74.5 -41q-12 -94 -38 -270q-47 -332 -48 -434q0 -186 168 -187q82 0 144.5 47.5t101.5 127.5q72 145 96 342l45 364q6 51 97 51q59 0 59 -41l-72 -573q-8 -66 -8 -152t17.5 -159.5t17.5 -83.5q0 -25 -38 -41.5t-62.5 -16.5 t-35.5 18.5t-18.5 51.5t-11.5 59q-10 68 -10 109q-47 -113 -136 -175.5t-194 -62.5q-131 0 -198 117q-23 -147 -23 -316t47 -227q25 -32 25 -67t-24.5 -60.5t-57.5 -25.5q-133 0 -133 377z" />
<glyph unicode="&#xb6;" horiz-adv-x="1312" d="M61 1075q0 96 36 175t84 126t122 84q104 53 236 82q604 139 663 139q102 0 188.5 -22.5t86.5 -48.5q0 -41 -18.5 -65.5t-30 -24.5t-74 19.5t-128 19.5t-109.5 -29t-67.5 -66t-41.5 -106q-23 -82 -41 -236l-123 -1036q-42 -379 -232 -479q-76 -39 -184.5 -39t-205.5 46 t-97 83q0 29 22.5 62.5t51.5 33.5q4 0 32.5 -21.5t83 -43t112.5 -21.5t94 12.5t66.5 51.5t50 89t38.5 146q29 133 69 479l72 633q33 276 113 391l-416 -102q-176 -45 -241.5 -128t-65.5 -188.5t58.5 -172t156.5 -66.5q102 0 170 61q23 20 41 20.5t41.5 -27t23.5 -58.5 q0 -37 -79.5 -80t-169 -43t-149.5 16.5t-116 53.5q-123 84 -123 280z" />
<glyph unicode="&#xb7;" horiz-adv-x="618" d="M205 524q0 125 117 125q92 0 92 -76q0 -127 -117 -127q-92 0 -92 78z" />
<glyph unicode="&#xb8;" horiz-adv-x="935" d="M186 -481q0 27 14.5 46t46.5 19t50 -35q20 -43 51 -67.5t96.5 -24.5t107.5 42t42 106q0 141 -186 141q-66 0 -66 47q0 23 10 60l43 147h99l-43 -145q112 0 191 -58.5t79 -185.5t-83 -196.5t-198.5 -69.5t-184.5 54t-69 120z" />
<glyph unicode="&#xb9;" horiz-adv-x="948" d="M139 1487q0 29 33 51q98 63 169 129t95.5 99.5t48 75.5t40 56.5t48.5 14.5q66 0 66 -53q0 -16 -8 -91l-96 -811h174q61 0 61 -57q0 -27 -18.5 -43t-46.5 -16h-486q-59 0 -59 55q0 29 17.5 45t45.5 16h180l84 689q-68 -76 -158.5 -145.5t-127.5 -69.5q-61 0 -62 55z" />
<glyph unicode="&#xba;" horiz-adv-x="1017" d="M174 800.5q0 59.5 53 59.5h555q23 0 35 -17.5t12 -41t-15 -42t-40 -18.5h-561q-39 0 -39 59.5zM205 1339.5q0 161.5 103.5 303t301.5 141.5q145 0 225 -100.5t80 -245.5q0 -190 -113.5 -323.5t-293.5 -133.5q-146 0 -224.5 98.5t-78.5 260zM338 1346.5 q0 -121.5 45 -190.5t147.5 -69t178 100.5t75.5 225.5t-47 195.5t-139 70.5q-123 0 -191.5 -105.5t-68.5 -227z" />
<glyph unicode="&#xbb;" horiz-adv-x="1134" d="M133 211.5q0 21.5 10 32.5l324 331v15l-217 301q-16 23 -16.5 47.5t22.5 51t45.5 26.5t32.5 -12l276 -318q43 -49 43 -99t-32 -81l-381 -346q-18 -18 -43 -18.5t-44.5 24t-19.5 46zM543 211.5q0 21.5 10 32.5l324 331v15l-218 301q-16 23 -16 47.5t22.5 51t45 26.5 t32.5 -12l277 -318q43 -49 43 -99t-33 -81l-381 -346q-18 -18 -42.5 -18.5t-44 24t-19.5 46z" />
<glyph unicode="&#xbc;" horiz-adv-x="2193" d="M205 1335q0 29 33 51q98 63 168.5 129t95 100t48 76t40 56t49.5 14q66 0 66 -53q0 -16 -9 -90l-96 -811h174q61 0 62 -57q0 -27 -18.5 -43.5t-47.5 -16.5h-485q-59 0 -60 55q0 29 17.5 45.5t46.5 16.5h180l84 688q-68 -76 -159 -145.5t-128 -69.5q-61 0 -61 55zM797 -49 q0 8 10 39l530 1792q16 53 101 53q55 0 55 -35q0 -8 -10 -43l-531 -1784q-16 -51 -106 -51q-49 0 -49 29zM1354 326q0 12 16 55l174 399q45 98 55.5 140.5t10.5 96.5t53 54q43 0 57.5 -25.5t14.5 -88t-76 -230.5l-150 -338h322l76 629q8 53 69.5 53t61.5 -45l-80 -637h72 q25 0 42 -15.5t17 -39.5q0 -63 -66 -64h-79l-29 -231q-8 -55 -67.5 -55t-59.5 53l27 233h-392q-70 0 -69 56z" />
<glyph unicode="&#xbd;" horiz-adv-x="2193" d="M205 1335q0 29 33 51q98 63 168.5 129t95 100t48 76t40 56t49.5 14q66 0 66 -53q0 -16 -9 -90l-96 -811h174q61 0 62 -57q0 -27 -18.5 -43.5t-47.5 -16.5h-485q-59 0 -60 55q0 29 17.5 45.5t46.5 16.5h180l84 688q-68 -76 -159 -145.5t-128 -69.5q-61 0 -61 55zM797 -49 q0 8 10 39l530 1792q16 53 101 53q55 0 55 -35q0 -8 -10 -43l-531 -1784q-16 -51 -106 -51q-49 0 -49 29zM1356 59q0 35 22 58l234 219q141 133 215 234.5t74 195.5t-46.5 139t-130.5 45t-155 -76q-37 -45 -76 -45q-57 0 -57 55.5t85 119t217 63.5t215 -74.5t83 -212 t-93.5 -268.5t-244.5 -268l-137 -125h411q25 0 41.5 -15.5t16.5 -40.5q0 -63 -70 -63h-535q-70 0 -69 59z" />
<glyph unicode="&#xbe;" horiz-adv-x="2275" d="M205 915q0 25 16.5 41.5t50 16.5t45.5 -33q57 -141 220 -141q102 0 173.5 57t71.5 152.5t-79.5 148.5t-178.5 53q-25 0 -41 12.5t-16 32.5q0 57 70.5 57.5t152.5 55.5t82 131q0 145 -164 146q-82 0 -170 -68q-31 -23 -49 -23q-51 0 -51 56.5t92 103.5t203.5 47 t195.5 -66.5t84 -185.5q0 -76 -53 -145.5t-125 -93.5q70 -20 127.5 -99t57.5 -159q0 -164 -109 -249t-285 -85q-127 0 -224 76.5t-97 160.5zM879 -49q0 8 10 39l530 1792q16 53 101 53q55 0 55 -35q0 -8 -10 -43l-531 -1784q-16 -51 -106 -51q-49 0 -49 29zM1436 326 q0 12 16 55l174 399q45 98 55.5 140.5t10.5 96.5t53 54q43 0 57.5 -25.5t14.5 -88t-76 -230.5l-150 -338h322l76 629q8 53 69.5 53t61.5 -45l-80 -637h71q25 0 42.5 -15.5t17.5 -39.5q0 -63 -66 -64h-80l-28 -231q-8 -55 -67.5 -55t-59.5 53l26 233h-391q-70 0 -69 56z" />
<glyph unicode="&#xbf;" horiz-adv-x="1046" d="M106 -346q0 178 156 317q68 57 135 111q168 135 189 270l28 195q6 49 65.5 49t59.5 -45q0 -4 -20 -207q-8 -90 -58.5 -168t-115 -133t-127.5 -109q-152 -131 -152 -272q0 -113 68.5 -175t183.5 -62q72 0 128 33.5t85 73.5t58.5 74t54.5 34q72 0 71.5 -74t-123 -178.5 t-288.5 -104.5t-282 98.5t-116 272.5zM610 877q0 127 117 127q92 0 92 -78q0 -125 -117 -125q-92 0 -92 76z" />
<glyph unicode="&#xc0;" horiz-adv-x="1433" d="M-43 37q0 33 100 248l674 1441q27 59 116 59.5t101 -59.5q354 -1702 355 -1703q0 -51 -78 -51.5t-90 59.5l-91 430h-731l-135 -297q-12 -33 -25.5 -59.5t-21.5 -44t-13 -26.5t-12.5 -21.5t-13.5 -18.5l-12 -12q-10 -10 -37 -10.5t-56.5 16t-29.5 49.5zM373 586h645 l-195 968zM596 2114.5q0 27.5 22.5 56.5t48 29t33.5 -7l375 -260q16 -10 16.5 -33.5t-14 -40t-31 -16.5t-24.5 4l-385 203q-25 14 -33 25.5t-8 39z" />
<glyph unicode="&#xc1;" horiz-adv-x="1433" d="M-43 37q0 33 100 248l674 1441q27 59 116 59.5t101 -59.5q354 -1702 355 -1703q0 -51 -78 -51.5t-90 59.5l-91 430h-731l-135 -297q-12 -33 -25.5 -59.5t-21.5 -44t-13 -26.5t-12.5 -21.5t-13.5 -18.5l-12 -12q-10 -10 -37 -10.5t-56.5 16t-29.5 49.5zM373 586h645 l-195 968zM647 1899.5q0 23.5 17 33.5l374 260q12 6 35 6.5t46.5 -28.5t23.5 -56.5t-8.5 -39t-32.5 -25.5l-385 -203q-8 -4 -24.5 -4t-31 16.5t-14.5 40z" />
<glyph unicode="&#xc2;" horiz-adv-x="1433" d="M-43 37q0 33 100 248l674 1441q27 59 116 59.5t101 -59.5q354 -1702 355 -1703q0 -51 -78 -51.5t-90 59.5l-91 430h-731l-135 -297q-12 -33 -25.5 -59.5t-21.5 -44t-13 -26.5t-12.5 -21.5t-13.5 -18.5l-12 -12q-10 -10 -37 -10.5t-56.5 16t-29.5 49.5zM373 586h645 l-195 968zM559 1892.5q0 18.5 8 30.5l224 238q57 63 109 63t79 -47l141 -244q12 -20 12.5 -37.5t-20 -36t-41 -18.5t-41.5 27l-141 184l-250 -199q-10 -10 -29.5 -10t-35 15.5t-15.5 34z" />
<glyph unicode="&#xc3;" horiz-adv-x="1433" d="M-43 37q0 33 100 248l674 1441q27 59 116 59.5t101 -59.5q354 -1702 355 -1703q0 -51 -78 -51.5t-90 59.5l-91 430h-731l-135 -297q-12 -33 -25.5 -59.5t-21.5 -44t-13 -26.5t-12.5 -21.5t-13.5 -18.5l-12 -12q-10 -10 -37 -10.5t-56.5 16t-29.5 49.5zM373 586h645 l-195 968zM530 1952q0 29 74 94t146 65q38 0 116 -40.5t122 -40.5t96.5 40.5t56.5 40.5q59 0 59 -63q0 -29 -73.5 -94.5t-145.5 -65.5q-39 0 -117 41t-122 41t-96 -41t-56 -41q-59 0 -60 64z" />
<glyph unicode="&#xc4;" horiz-adv-x="1433" d="M-43 37q0 33 100 248l674 1441q27 59 116 59.5t101 -59.5q354 -1702 355 -1703q0 -51 -78 -51.5t-90 59.5l-91 430h-731l-135 -297q-12 -33 -25.5 -59.5t-21.5 -44t-13 -26.5t-12.5 -21.5t-13.5 -18.5l-12 -12q-10 -10 -37 -10.5t-56.5 16t-29.5 49.5zM373 586h645 l-195 968zM569 1982q0 125 117 125q92 1 92 -75q0 -127 -116 -127q-92 0 -93 77zM963 1982q0 125 116 125q92 1 92 -75q0 -127 -116 -127q-92 0 -92 77z" />
<glyph unicode="&#xc5;" horiz-adv-x="1433" d="M-43 37q0 33 100 248l674 1441q21 44 72 56q-145 25 -146 207q0 88 64.5 170t173.5 82t159 -58.5t50 -148.5t-58.5 -164t-152.5 -90q47 -10 55 -54q354 -1702 355 -1703q0 -51 -78 -51.5t-90 59.5l-91 430h-731l-135 -297q-12 -33 -25.5 -59.5t-21.5 -44t-13 -26.5 t-12.5 -21.5t-13.5 -18.5l-12 -12q-10 -10 -37 -10.5t-56.5 16t-29.5 49.5zM373 586h645l-195 968zM770 1987q0 -109 92 -109q55 0 93 44t38 103q0 111 -92 111q-61 0 -96 -46t-35 -103z" />
<glyph unicode="&#xc6;" horiz-adv-x="1953" d="M-104 31q0 39 51 137l782 1534q29 59 115 59h1046q63 0 64 -55q0 -41 -16.5 -57.5t-59.5 -16.5h-688l-76 -708h567q72 0 72 -54q0 -41 -17.5 -58t-60.5 -17h-579l-82 -664h731q53 0 53 -61q0 -31 -16.5 -50.5t-40.5 -19.5h-828q-68 0 -67 53q0 12 2 31l86 711h-490 l-317 -631q-6 -12 -23.5 -48t-29 -56.5t-25.5 -45.5q-28 -43 -59 -43q-94 0 -94 60zM510 924h438l86 708h-166z" />
<glyph unicode="&#xc7;" horiz-adv-x="1353" d="M86 676q0 401 172 733q86 170 243.5 273.5t366.5 103.5q260 0 414 -154q74 -74 74 -114q0 -20 -34 -44t-55.5 -24t-49 33t-61.5 72.5t-111.5 72.5t-195.5 33t-225.5 -69.5t-175 -177t-114.5 -243.5q-84 -244 -84 -505q0 -229 100 -385q51 -80 140.5 -126t205.5 -46 q246 0 408 176q6 6 26 32q37 53 64 53.5t47.5 -17t20.5 -38t-15 -43.5q-94 -147 -240.5 -224t-324.5 -77h-14l-35 -116q113 0 191.5 -58.5t78.5 -185.5t-83 -196.5t-198.5 -69.5t-184 54t-68.5 120q0 27 14 46t47 19t51.5 -39t49 -63.5t96 -24.5t107.5 42t42 106 q0 141 -186 141q-66 0 -66 47q0 23 11 60l36 127q-252 33 -368.5 219t-116.5 477z" />
<glyph unicode="&#xc8;" horiz-adv-x="1224" d="M117 53q0 12 2 31l194 1608q7 69 58 69h790q63 0 64 -55q0 -41 -16.5 -57.5t-59.5 -16.5h-688l-68 -641h568q72 0 71 -53q0 -41 -17.5 -58.5t-60.5 -17.5h-579l-90 -731h731q53 0 53 -61q0 -31 -16.5 -50.5t-40.5 -19.5h-828q-68 0 -67 53zM539 2114.5q0 27.5 22.5 56.5 t48 29t33.5 -7l375 -260q16 -10 16 -33.5t-14 -40t-30.5 -16.5t-24.5 4l-385 203q-25 14 -33 25.5t-8 39z" />
<glyph unicode="&#xc9;" horiz-adv-x="1224" d="M117 53q0 12 2 31l194 1608q7 69 58 69h790q63 0 64 -55q0 -41 -16.5 -57.5t-59.5 -16.5h-688l-68 -641h568q72 0 71 -53q0 -41 -17.5 -58.5t-60.5 -17.5h-579l-90 -731h731q53 0 53 -61q0 -31 -16.5 -50.5t-40.5 -19.5h-828q-68 0 -67 53zM578 1899.5q0 23.5 16 33.5 l375 260q12 6 34.5 6.5t46 -28.5t23.5 -56.5t-8 -39t-33 -25.5l-385 -203q-8 -4 -24.5 -4t-30.5 16.5t-14 40z" />
<glyph unicode="&#xca;" horiz-adv-x="1224" d="M117 53q0 12 2 31l194 1608q7 69 58 69h790q63 0 64 -55q0 -41 -16.5 -57.5t-59.5 -16.5h-688l-68 -641h568q72 0 71 -53q0 -41 -17.5 -58.5t-60.5 -17.5h-579l-90 -731h731q53 0 53 -61q0 -31 -16.5 -50.5t-40.5 -19.5h-828q-68 0 -67 53zM500 1892.5q0 18.5 8 30.5 l223 238q57 63 109.5 63t79.5 -47l141 -244q12 -20 12 -37.5t-20.5 -36t-41 -18.5t-40.5 27l-142 184l-249 -199q-10 -10 -30 -10t-35 15.5t-15 34z" />
<glyph unicode="&#xcb;" horiz-adv-x="1224" d="M117 53q0 12 2 31l194 1608q7 69 58 69h790q63 0 64 -55q0 -41 -16.5 -57.5t-59.5 -16.5h-688l-68 -641h568q72 0 71 -53q0 -41 -17.5 -58.5t-60.5 -17.5h-579l-90 -731h731q53 0 53 -61q0 -31 -16.5 -50.5t-40.5 -19.5h-828q-68 0 -67 53zM522 1982q0 125 117 125 q92 1 92 -75q0 -127 -117 -127q-92 0 -92 77zM915 1982q0 125 117 125q92 1 92 -75q0 -127 -116 -127q-92 0 -93 77z" />
<glyph unicode="&#xcc;" horiz-adv-x="600" d="M117 29q0 6 207 1691q8 66 83.5 66t75.5 -49q0 -6 -209 -1700q-8 -66 -82.5 -66t-74.5 58zM176 2114.5q0 27.5 22.5 56.5t48 29t34.5 -7l374 -260q16 -10 16.5 -33.5t-14 -40t-31 -16.5t-24.5 4l-385 203q-25 14 -33 25.5t-8 39z" />
<glyph unicode="&#xcd;" horiz-adv-x="600" d="M117 29q0 6 207 1691q8 66 83.5 66t75.5 -49q0 -6 -209 -1700q-8 -66 -82.5 -66t-74.5 58zM188 1899.5q0 23.5 17 33.5l375 260q12 6 34.5 6.5t46 -28.5t23.5 -56.5t-8 -39t-33 -25.5l-385 -203q-8 -4 -24.5 -4t-31 16.5t-14.5 40z" />
<glyph unicode="&#xce;" horiz-adv-x="600" d="M117 29q0 6 207 1691q8 66 83.5 66t75.5 -49q0 -6 -209 -1700q-8 -66 -82.5 -66t-74.5 58zM127 1892.5q0 18.5 8 30.5l223 238q57 63 109.5 63t79.5 -47l141 -244q12 -20 12 -37.5t-20.5 -36t-41 -18.5t-40.5 27l-141 184l-250 -199q-10 -10 -29.5 -10t-35 15.5t-15.5 34 z" />
<glyph unicode="&#xcf;" horiz-adv-x="600" d="M117 29q0 6 207 1691q8 66 83.5 66t75.5 -49q0 -6 -209 -1700q-8 -66 -82.5 -66t-74.5 58zM139 1982q0 125 117 125q92 1 92 -75q0 -127 -117 -127q-92 0 -92 77zM532 1982q0 125 117 125q92 1 92 -75q0 -127 -116 -127q-92 0 -93 77z" />
<glyph unicode="&#xd0;" horiz-adv-x="1585" d="M-4 874.5q0 26.5 15 49t44 22.5h164l92 768q2 20 20.5 33.5t39.5 15.5q233 23 442 23q340 0 511 -179.5t171 -508.5q0 -475 -197 -789q-100 -160 -275 -249t-429 -89t-401 21q-78 10 -78 57q0 29 4 57l84 709h-164q-18 0 -30.5 16.5t-12.5 43zM283 127q131 -18 325.5 -18 t339 87t223.5 234q160 293 160 690q0 242 -139 389.5t-375.5 147.5t-353.5 -21l-84 -690h467q25 0 39 -18.5t14 -45t-16.5 -47t-44.5 -20.5h-473z" />
<glyph unicode="&#xd1;" horiz-adv-x="1556" d="M117 16.5q0 22.5 4 63.5l196 1642q8 63 91 64h45q66 0 84 -51l575 -1450l166 1392q6 59 15.5 79t25.5 25t52 5t52.5 -12.5t16.5 -34t-4 -62.5l-201 -1642q-6 -63 -80 -64h-39q-68 0 -90 56l-580 1462l-167 -1409q-9 -68 -25 -88.5t-60 -20.5t-60.5 11.5t-16.5 34z M606 1952q0 29 74 94t145 65q39 0 117 -40.5t122 -40.5t96 40.5t57 40.5q59 0 59 -63q0 -29 -74 -94.5t-145 -65.5q-39 0 -117 41t-122 41t-96 -41t-56 -41q-59 0 -60 64z" />
<glyph unicode="&#xd2;" horiz-adv-x="1503" d="M86 657q0 317 107 596q59 152 144 268.5t218 190.5t292 74t271.5 -53.5t176 -148.5t93 -214t29.5 -253t-17.5 -259t-54 -254t-98 -241.5t-143.5 -200.5t-199 -139.5t-262 -51.5t-257 53.5t-177 149.5q-123 184 -123 483zM252 645q0 -219 88 -373q98 -170 336 -170 q121 0 225.5 74t169 184.5t107.5 251.5q76 250 75 506q0 219 -90 373q-45 80 -129 125t-204.5 45t-225 -74t-169 -184.5t-107.5 -251.5q-76 -250 -76 -506zM606 2114.5q0 27.5 22.5 56.5t48 29t34.5 -7l374 -260q16 -10 16.5 -33.5t-14 -40t-31 -16.5t-24.5 4l-385 203 q-25 14 -33 25.5t-8 39z" />
<glyph unicode="&#xd3;" horiz-adv-x="1503" d="M86 657q0 317 107 596q59 152 144 268.5t218 190.5t292 74t271.5 -53.5t176 -148.5t93 -214t29.5 -253t-17.5 -259t-54 -254t-98 -241.5t-143.5 -200.5t-199 -139.5t-262 -51.5t-257 53.5t-177 149.5q-123 184 -123 483zM252 645q0 -219 88 -373q98 -170 336 -170 q121 0 225.5 74t169 184.5t107.5 251.5q76 250 75 506q0 219 -90 373q-45 80 -129 125t-204.5 45t-225 -74t-169 -184.5t-107.5 -251.5q-76 -250 -76 -506zM666 1899.5q0 23.5 16 33.5l375 260q12 6 34.5 6.5t46 -28.5t23.5 -56.5t-8 -39t-33 -25.5l-385 -203 q-8 -4 -24.5 -4t-30.5 16.5t-14 40z" />
<glyph unicode="&#xd4;" horiz-adv-x="1503" d="M86 657q0 317 107 596q59 152 144 268.5t218 190.5t292 74t271.5 -53.5t176 -148.5t93 -214t29.5 -253t-17.5 -259t-54 -254t-98 -241.5t-143.5 -200.5t-199 -139.5t-262 -51.5t-257 53.5t-177 149.5q-123 184 -123 483zM252 645q0 -219 88 -373q98 -170 336 -170 q121 0 225.5 74t169 184.5t107.5 251.5q76 250 75 506q0 219 -90 373q-45 80 -129 125t-204.5 45t-225 -74t-169 -184.5t-107.5 -251.5q-76 -250 -76 -506zM588 1892.5q0 18.5 8 30.5l223 238q57 63 109.5 63t79.5 -47l141 -244q12 -20 12 -37.5t-20.5 -36t-41 -18.5 t-40.5 27l-141 184l-250 -199q-10 -10 -30 -10t-35 15.5t-15 34z" />
<glyph unicode="&#xd5;" horiz-adv-x="1503" d="M86 657q0 317 107 596q59 152 144 268.5t218 190.5t292 74t271.5 -53.5t176 -148.5t93 -214t29.5 -253t-17.5 -259t-54 -254t-98 -241.5t-143.5 -200.5t-199 -139.5t-262 -51.5t-257 53.5t-177 149.5q-123 184 -123 483zM252 645q0 -219 88 -373q98 -170 336 -170 q121 0 225.5 74t169 184.5t107.5 251.5q76 250 75 506q0 219 -90 373q-45 80 -129 125t-204.5 45t-225 -74t-169 -184.5t-107.5 -251.5q-76 -250 -76 -506zM553 1952q0 29 73.5 94t145.5 65q39 0 117 -40.5t122 -40.5t96 40.5t56 40.5q59 0 60 -63q0 -29 -74 -94.5 t-145 -65.5q-39 0 -117 41t-122 41t-96.5 -41t-56.5 -41q-59 0 -59 64z" />
<glyph unicode="&#xd6;" horiz-adv-x="1503" d="M86 657q0 317 107 596q59 152 144 268.5t218 190.5t292 74t271.5 -53.5t176 -148.5t93 -214t29.5 -253t-17.5 -259t-54 -254t-98 -241.5t-143.5 -200.5t-199 -139.5t-262 -51.5t-257 53.5t-177 149.5q-123 184 -123 483zM252 645q0 -219 88 -373q98 -170 336 -170 q121 0 225.5 74t169 184.5t107.5 251.5q76 250 75 506q0 219 -90 373q-45 80 -129 125t-204.5 45t-225 -74t-169 -184.5t-107.5 -251.5q-76 -250 -76 -506zM592 1982q0 125 117 125q92 1 92 -75q0 -127 -117 -127q-92 0 -92 77zM985 1982q0 125 117 125q92 1 92 -75 q0 -127 -117 -127q-92 0 -92 77z" />
<glyph unicode="&#xd7;" d="M260 487.5q0 22.5 14 40.5l312 312l-254 309q-14 18 -14.5 44t22 48.5t51.5 22.5t39 -11l252 -309l313 311q12 12 41 12.5t51.5 -23t22.5 -52.5t-18 -39l-312 -313l258 -312q14 -18 14.5 -42.5t-22 -48t-51.5 -23.5t-39 10l-258 313l-309 -313q-10 -10 -36 -10 t-51.5 25.5t-25.5 48z" />
<glyph unicode="&#xd8;" horiz-adv-x="1503" d="M86 657q0 317 107 596q59 152 144 268.5t218 190.5t297 74l57 -2l35 133q16 61 100 61q55 0 56 -39q0 -12 -10 -49l-35 -133q362 -117 362 -653q0 -248 -71 -500q-76 -264 -242 -442q-82 -88 -199 -139.5t-254 -51.5l-57 2l-35 -135q-16 -59 -106 -59q-49 0 -50 33 q0 8 11 45l37 143q-365 115 -365 657zM252 645q0 -393 233 -506l392 1520q-12 2 -39 2q-129 0 -233.5 -74t-169 -184.5t-107.5 -251.5q-76 -250 -76 -506zM627 102h41q129 0 233.5 74t169 184.5t107.5 251.5q76 250 75 465q0 430 -233 545z" />
<glyph unicode="&#xd9;" horiz-adv-x="1517" d="M115 461q0 74 14 198l135 1074q10 53 82 53t72 -53l-129 -1074q-14 -123 -15 -192q0 -178 81 -269.5t282 -91.5q131 0 216 37t133 119t69.5 168t40.5 229l131 1074q10 53 82.5 53t72.5 -53l-129 -1074q-23 -178 -57.5 -294.5t-101.5 -210.5q-133 -182 -476 -183 q-274 0 -388.5 124t-114.5 366zM571 2114.5q0 27.5 22.5 56.5t48.5 29t34 -7l375 -260q16 -10 16 -33.5t-14.5 -40t-30.5 -16.5t-25 4l-385 203q-25 14 -33 25.5t-8 39z" />
<glyph unicode="&#xda;" horiz-adv-x="1517" d="M115 461q0 74 14 198l135 1074q10 53 82 53t72 -53l-129 -1074q-14 -123 -15 -192q0 -178 81 -269.5t282 -91.5q131 0 216 37t133 119t69.5 168t40.5 229l131 1074q10 53 82.5 53t72.5 -53l-129 -1074q-23 -178 -57.5 -294.5t-101.5 -210.5q-133 -182 -476 -183 q-274 0 -388.5 124t-114.5 366zM637 1899.5q0 23.5 16 33.5l375 260q12 6 34.5 6.5t46.5 -28.5t24 -56.5t-8.5 -39t-32.5 -25.5l-385 -203q-8 -4 -24.5 -4t-31 16.5t-14.5 40z" />
<glyph unicode="&#xdb;" horiz-adv-x="1517" d="M115 461q0 74 14 198l135 1074q10 53 82 53t72 -53l-129 -1074q-14 -123 -15 -192q0 -178 81 -269.5t282 -91.5q131 0 216 37t133 119t69.5 168t40.5 229l131 1074q10 53 82.5 53t72.5 -53l-129 -1074q-23 -178 -57.5 -294.5t-101.5 -210.5q-133 -182 -476 -183 q-274 0 -388.5 124t-114.5 366zM565 1892.5q0 18.5 8 30.5l224 238q57 63 109 63t79 -47l141 -244q12 -20 12.5 -37.5t-20 -36t-41 -18.5t-41.5 27l-141 184l-250 -199q-10 -10 -29.5 -10t-35 15.5t-15.5 34z" />
<glyph unicode="&#xdc;" horiz-adv-x="1517" d="M115 461q0 74 14 198l135 1074q10 53 82 53t72 -53l-129 -1074q-14 -123 -15 -192q0 -178 81 -269.5t282 -91.5q131 0 216 37t133 119t69.5 168t40.5 229l131 1074q10 53 82.5 53t72.5 -53l-129 -1074q-23 -178 -57.5 -294.5t-101.5 -210.5q-133 -182 -476 -183 q-274 0 -388.5 124t-114.5 366zM563 1982q0 125 117 125q92 1 92 -75q0 -127 -117 -127q-92 0 -92 77zM956 1982q0 125 117 125q92 1 92 -75q0 -127 -116 -127q-92 0 -93 77z" />
<glyph unicode="&#xdd;" horiz-adv-x="1220" d="M121 1735q0 51 82 51q39 0 57.5 -12.5t32.5 -47.5l289 -757l557 780q27 37 80 37q80 0 79 -57q0 -37 -22 -66l-637 -858l-96 -768q-8 -66 -83 -66t-75 47q0 14 2 31l92 762l-356 907zM530 1899.5q0 23.5 17 33.5l375 260q12 6 34.5 6.5t46 -28.5t23.5 -56.5t-8 -39 t-33 -25.5l-385 -203q-8 -4 -24.5 -4t-31 16.5t-14.5 40z" />
<glyph unicode="&#xde;" horiz-adv-x="1318" d="M117 29q0 6 207 1691q8 66 83.5 66t75.5 -49q0 -10 -39 -316q170 18 285 19q248 0 393.5 -115t145.5 -332q0 -154 -73 -270.5t-198 -183.5q-246 -133 -600 -133q-51 0 -78 2l-45 -371q-8 -66 -82.5 -66t-74.5 58zM338 549q764 0 764 444q0 156 -99.5 237t-259 81 t-315.5 -21z" />
<glyph unicode="&#xdf;" horiz-adv-x="1392" d="M82 -319q0 4 176 1433q45 362 191.5 517t386.5 155q168 0 280.5 -105.5t112.5 -294.5q0 -141 -76 -248.5t-211 -160.5q133 -47 225.5 -185.5t92.5 -281.5q0 -260 -142.5 -399.5t-355.5 -139.5q-143 0 -241.5 79t-98.5 177q0 61 53 62q49 0 103 -92q20 -37 71 -66t127 -29 q154 0 235 121t81 282t-106.5 276.5t-309.5 115.5q-25 0 -43.5 18.5t-18.5 47.5q0 70 70 69q141 0 255 95.5t114 258.5q0 127 -64.5 195t-163.5 68q-168 0 -270 -121t-139 -420l-176 -1419q-8 -66 -83 -66t-75 58z" />
<glyph unicode="&#xe0;" horiz-adv-x="1087" d="M109 221q0 170 156.5 287t514.5 139q10 61 11 127q0 127 -189 127q-94 0 -191.5 -39t-101.5 -39q-27 0 -43 32t-16 66.5t127 75.5t252 41t222 -56t97 -179q0 -55 -38 -273.5t-38 -300.5t11.5 -135t11.5 -65q0 -25 -41 -41.5t-78 -16.5q-45 0 -45 185v53 q-59 -117 -157.5 -177.5t-207 -60.5t-183 65.5t-74.5 184.5zM270 252q0 -61 42 -103.5t112 -42.5q127 0 215 128t115 290q-262 -20 -373 -89.5t-111 -182.5zM491.5 1570q0.5 29 27 55t56 26t41.5 -15l281 -331q8 -12 8 -31t-15.5 -34t-34.5 -15t-30 10l-307 281 q-27 25 -26.5 54z" />
<glyph unicode="&#xe1;" horiz-adv-x="1087" d="M109 221q0 170 156.5 287t514.5 139q10 61 11 127q0 127 -189 127q-94 0 -191.5 -39t-101.5 -39q-27 0 -43 32t-16 66.5t127 75.5t252 41t222 -56t97 -179q0 -55 -38 -273.5t-38 -300.5t11.5 -135t11.5 -65q0 -25 -41 -41.5t-78 -16.5q-45 0 -45 185v53 q-59 -117 -157.5 -177.5t-207 -60.5t-183 65.5t-74.5 184.5zM270 252q0 -61 42 -103.5t112 -42.5q127 0 215 128t115 290q-262 -20 -373 -89.5t-111 -182.5zM444 1273.5q0 18.5 9 31.5l280 331q12 14 42 14.5t56.5 -25.5t26.5 -55.5t-27 -53.5l-307 -281q-10 -10 -29.5 -10 t-35 15t-15.5 33.5z" />
<glyph unicode="&#xe2;" horiz-adv-x="1026" d="M78 221q0 170 156.5 287t515.5 139q10 61 10 127q0 127 -189 127q-94 0 -191 -39t-101 -39q-27 0 -43.5 32t-16.5 66.5t127 75.5t252 41t222.5 -56t97.5 -179q0 -55 -38 -273.5t-38 -300.5t11 -135t11 -65q0 -25 -41 -41.5t-78 -16.5q-45 0 -45 185v53 q-59 -117 -157.5 -177.5t-207 -60.5t-183 65.5t-74.5 184.5zM240 252q0 -61 42 -103.5t111 -42.5q127 0 215 128t115 290q-262 -20 -372.5 -89.5t-110.5 -182.5zM297 1273.5q0 18.5 8 31.5l240 282q2 2 9 11.5t12 14.5t14.5 13t17.5 12q29 12 51 13q57 0 84 -47l174 -287 q12 -20 12.5 -37.5t-20 -36t-41 -18.5t-41.5 26l-174 228l-266 -244q-10 -10 -29.5 -10t-35 15t-15.5 33.5z" />
<glyph unicode="&#xe3;" horiz-adv-x="1087" d="M109 221q0 170 156.5 287t514.5 139q10 61 11 127q0 127 -189 127q-94 0 -191.5 -39t-101.5 -39q-27 0 -43 32t-16 66.5t127 75.5t252 41t222 -56t97 -179q0 -55 -38 -273.5t-38 -300.5t11.5 -135t11.5 -65q0 -25 -41 -41.5t-78 -16.5q-45 0 -45 185v53 q-59 -117 -157.5 -177.5t-207 -60.5t-183 65.5t-74.5 184.5zM270 252q0 -61 42 -103.5t112 -42.5q127 0 215 128t115 290q-262 -20 -373 -89.5t-111 -182.5zM334 1368q0 29 73.5 94.5t145.5 65.5q39 0 117 -41t122 -41t96 41t56 41q59 0 60 -64q0 -29 -74 -94t-146 -65 q-39 0 -116.5 40.5t-121.5 40.5t-96.5 -40.5t-56.5 -40.5q-59 0 -59 63z" />
<glyph unicode="&#xe4;" horiz-adv-x="1087" d="M109 221q0 170 156.5 287t514.5 139q10 61 11 127q0 127 -189 127q-94 0 -191.5 -39t-101.5 -39q-27 0 -43 32t-16 66.5t127 75.5t252 41t222 -56t97 -179q0 -55 -38 -273.5t-38 -300.5t11.5 -135t11.5 -65q0 -25 -41 -41.5t-78 -16.5q-45 0 -45 185v53 q-59 -117 -157.5 -177.5t-207 -60.5t-183 65.5t-74.5 184.5zM270 252q0 -61 42 -103.5t112 -42.5q127 0 215 128t115 290q-262 -20 -373 -89.5t-111 -182.5zM377 1368q0 125 117 125q92 0 92 -76q0 -127 -117 -127q-92 0 -92 78zM770 1368q0 125 117 125q92 0 92 -76 q0 -127 -117 -127q-92 0 -92 78z" />
<glyph unicode="&#xe5;" horiz-adv-x="1026" d="M78 221q0 170 156.5 287t515.5 139q10 61 10 127q0 127 -189 127q-94 0 -191 -39t-101 -39q-27 0 -43.5 32t-16.5 66.5t127 75.5t252 41t222.5 -56t97.5 -179q0 -55 -38 -273.5t-38 -300.5t11 -135t11 -65q0 -25 -41 -41.5t-78 -16.5q-45 0 -45 185v53 q-59 -117 -157.5 -177.5t-207 -60.5t-183 65.5t-74.5 184.5zM240 252q0 -61 42 -103.5t111 -42.5q127 0 215 128t115 290q-262 -20 -372.5 -89.5t-110.5 -182.5zM436 1400q0 93 64.5 175t173 82t159 -58.5t50.5 -154.5t-71 -173t-174 -77t-152.5 56.5t-49.5 149.5zM549 1403 q0 -109 92 -109q55 0 93 44t38 104q0 111 -92 110q-61 0 -96 -46t-35 -103z" />
<glyph unicode="&#xe6;" horiz-adv-x="1554" d="M78 232q0 130 111.5 246t318.5 116q109 0 223 -29q29 172 29 209q0 127 -189 127q-94 0 -191 -39t-101 -39q-27 0 -43.5 32t-16.5 66.5t127 75.5t232 41q279 0 313 -182q80 88 183.5 135t210 47t178 -54t71.5 -155q0 -180 -182.5 -286.5t-466.5 -106.5q0 -156 71.5 -247 t206.5 -91q63 0 123 27t94 55l35 27q23 0 39 -31t16 -61q0 -37 -107.5 -90.5t-207.5 -53.5q-332 0 -399 291q-80 -135 -187.5 -213t-224.5 -78t-191.5 65.5t-74.5 195.5zM240 252q0 -61 42 -103.5t111 -42.5q125 0 211 112t115 239q-98 25 -205.5 24.5t-190.5 -54.5 t-83 -175zM893 543q190 0 340.5 75.5t150.5 190.5q0 51 -31.5 78.5t-82.5 27.5q-111 0 -229.5 -101t-147.5 -271z" />
<glyph unicode="&#xe7;" horiz-adv-x="935" d="M109 428q0 244 149 427t395 183q113 0 193 -43t80 -80q0 -31 -23.5 -58.5t-42 -27.5t-41.5 21q-68 61 -168 61t-175 -43t-116 -114q-84 -145 -84 -314.5t71 -255.5t206 -86q61 0 121.5 27t95.5 54.5t37 27.5q23 0 38 -31t15 -61q0 -37 -107.5 -90.5t-207.5 -53.5 q-31 0 -45 2l-35 -118q113 0 191.5 -58.5t78.5 -185.5t-83 -196.5t-198.5 -69.5t-184 54t-68.5 120q0 27 14 46t47 19t51.5 -39t49 -63.5t96 -24.5t107.5 42t42 106q0 141 -186 141q-66 0 -66 47q0 23 11 60l39 135q-297 72 -297 440z" />
<glyph unicode="&#xe8;" horiz-adv-x="944" d="M109 424q0 150 55 272.5t139 194.5q176 147 365 147q113 0 184.5 -54t71.5 -155q0 -180 -187.5 -293.5t-462.5 -113.5q0 -154 72 -239t207 -85q63 0 122.5 27t94.5 55l35 27q23 0 39 -31t16 -61q0 -37 -107.5 -90.5t-207.5 -53.5q-213 0 -324.5 118t-111.5 335zM283 543 q190 0 340.5 75.5t150.5 190.5q0 51 -31.5 78.5t-83.5 27.5q-111 0 -229.5 -101t-146.5 -271zM450.5 1570q0.5 29 27 55t56 26t41.5 -15l281 -331q8 -12 8 -31t-15 -34t-34.5 -15t-30.5 10l-307 281q-27 25 -26.5 54z" />
<glyph unicode="&#xe9;" horiz-adv-x="944" d="M109 424q0 150 55 272.5t139 194.5q176 147 365 147q113 0 184.5 -54t71.5 -155q0 -180 -187.5 -293.5t-462.5 -113.5q0 -154 72 -239t207 -85q63 0 122.5 27t94.5 55l35 27q23 0 39 -31t16 -61q0 -37 -107.5 -90.5t-207.5 -53.5q-213 0 -324.5 118t-111.5 335zM283 543 q190 0 340.5 75.5t150.5 190.5q0 51 -31.5 78.5t-83.5 27.5q-111 0 -229.5 -101t-146.5 -271zM397 1273.5q0 18.5 9 31.5l280 331q12 14 42 14.5t56.5 -25.5t26.5 -55.5t-27 -53.5l-307 -281q-10 -10 -29.5 -10t-35 15t-15.5 33.5z" />
<glyph unicode="&#xea;" horiz-adv-x="944" d="M109 424q0 150 55 272.5t139 194.5q176 147 365 147q113 0 184.5 -54t71.5 -155q0 -180 -187.5 -293.5t-462.5 -113.5q0 -154 72 -239t207 -85q63 0 122.5 27t94.5 55l35 27q23 0 39 -31t16 -61q0 -37 -107.5 -90.5t-207.5 -53.5q-213 0 -324.5 118t-111.5 335zM283 543 q190 0 340.5 75.5t150.5 190.5q0 51 -31.5 78.5t-83.5 27.5q-111 0 -229.5 -101t-146.5 -271zM303 1273.5q0 18.5 8 31.5l240 282q2 2 9 11.5t12.5 14.5t14.5 13t19 12q27 12 49 13q57 0 84 -47l174 -287q12 -20 12.5 -37.5t-20 -36t-41 -18.5t-41.5 26l-174 228l-266 -244 q-10 -10 -29.5 -10t-35 15t-15.5 33.5z" />
<glyph unicode="&#xeb;" horiz-adv-x="944" d="M109 424q0 150 55 272.5t139 194.5q176 147 365 147q113 0 184.5 -54t71.5 -155q0 -180 -187.5 -293.5t-462.5 -113.5q0 -154 72 -239t207 -85q63 0 122.5 27t94.5 55l35 27q23 0 39 -31t16 -61q0 -37 -107.5 -90.5t-207.5 -53.5q-213 0 -324.5 118t-111.5 335zM283 543 q190 0 340.5 75.5t150.5 190.5q0 51 -31.5 78.5t-83.5 27.5q-111 0 -229.5 -101t-146.5 -271zM334 1368q0 125 117 125q92 0 92 -76q0 -127 -117 -127q-92 0 -92 78zM727 1368q0 125 117 125q92 0 92 -76q0 -127 -117 -127q-92 0 -92 78z" />
<glyph unicode="&#xec;" horiz-adv-x="561" d="M172 12l117 975q6 51 79.5 51t73.5 -41l-118 -974q-7 -52 -97 -52q-31 0 -43 8.5t-12 32.5zM239.5 1570q0.5 29 27 55t56 26t42.5 -15l280 -331q8 -12 8 -31t-15 -34t-34.5 -15t-30.5 10l-307 281q-27 25 -26.5 54z" />
<glyph unicode="&#xed;" horiz-adv-x="555" d="M172 12l117 975q6 51 79.5 51t73.5 -41l-118 -974q-7 -52 -97 -52q-31 0 -43 8.5t-12 32.5zM197 1273.5q0 18.5 8 31.5l280 331q12 14 42 14.5t56.5 -25.5t26.5 -55.5t-26 -53.5l-308 -281q-10 -10 -29.5 -10t-34.5 15t-15 33.5z" />
<glyph unicode="&#xee;" horiz-adv-x="499" d="M27 1273.5q0 18.5 8 31.5l239 282q2 2 9.5 11.5t12.5 14.5t14 13t18 12q29 12 51 13q57 0 84 -47l174 -287q12 -20 12 -37.5t-20.5 -36t-41 -18.5t-40.5 26l-174 228l-267 -244q-10 -10 -29.5 -10t-34.5 15t-15 33.5zM141 12l117 975q6 51 80 51t74 -41l-119 -974 q-6 -52 -96 -52q-31 0 -43.5 8.5t-12.5 32.5z" />
<glyph unicode="&#xef;" horiz-adv-x="561" d="M129 1368q0 125 117 125q92 0 92 -76q0 -127 -117 -127q-92 0 -92 78zM172 12l117 975q6 51 79.5 51t73.5 -41l-118 -974q-7 -52 -97 -52q-31 0 -43 8.5t-12 32.5zM522 1368q0 125 117 125q92 0 92 -76q0 -127 -117 -127q-92 0 -92 78z" />
<glyph unicode="&#xf0;" horiz-adv-x="1132" d="M109 424q0 223 124 410q63 92 171 148t254.5 56t232.5 -96q-33 240 -139 410l-172 -88q-33 -16 -47.5 -16.5t-30 22t-15.5 51.5t29 43l166 84q-147 172 -317 172q-45 0 -86 -15.5t-62.5 -15.5t-37 19.5t-15.5 50.5q0 51 68.5 74.5t138.5 23.5q254 0 440 -244l182 93 q33 16 47.5 16t29.5 -22.5t15 -51t-28 -43.5l-180 -92q174 -301 174 -700q0 -307 -125 -516q-63 -104 -170 -165t-246 -61q-190 0 -295.5 131t-105.5 322zM272 421q0 -134 63.5 -228.5t206 -94.5t247 137.5t104.5 309.5t-65.5 269t-187.5 97t-208 -74.5t-123 -178 t-37 -237.5z" />
<glyph unicode="&#xf1;" horiz-adv-x="1226" d="M172 12l117 975q6 51 79.5 51t73.5 -41l-18 -143h12q127 184 324 184q156 0 238.5 -72.5t82.5 -199.5q0 -18 -94 -743q-6 -51 -100 -52q-53 0 -53 41l86 711l4 31q0 150 -185 149q-152 0 -246 -138t-122 -366l-47 -376q-6 -51 -97 -52q-31 0 -43 8.5t-12 32.5zM430 1368 q0 29 74 94.5t145 65.5q39 0 117 -41t122 -41t96 41t56 41q59 0 60 -64q0 -29 -74 -94t-145 -65q-39 0 -117 40.5t-122 40.5t-96 -40.5t-57 -40.5q-59 0 -59 63z" />
<glyph unicode="&#xf2;" horiz-adv-x="1116" d="M109 424q0 223 124 410q63 92 171 148t245 56q190 0 296 -133t106 -325q0 -254 -150.5 -431.5t-390.5 -177.5q-190 0 -293.5 130t-107.5 323zM272 421q0 -134 63.5 -228.5t206 -94.5t247 137.5t104.5 309.5t-65.5 269t-187.5 97t-208 -74.5t-123 -178t-37 -237.5z M514 1570q0 29 26.5 55t56.5 26t42 -15l281 -331q8 -12 8 -31t-15.5 -34t-35 -15t-29.5 10l-307 281q-27 25 -27 54z" />
<glyph unicode="&#xf3;" horiz-adv-x="1116" d="M109 424q0 223 124 410q63 92 171 148t245 56q190 0 296 -133t106 -325q0 -254 -150.5 -431.5t-390.5 -177.5q-190 0 -293.5 130t-107.5 323zM272 421q0 -134 63.5 -228.5t206 -94.5t247 137.5t104.5 309.5t-65.5 269t-187.5 97t-208 -74.5t-123 -178t-37 -237.5z M469 1273.5q0 18.5 8 31.5l281 331q12 14 41.5 14.5t56.5 -25.5t27 -55.5t-27 -53.5l-307 -281q-10 -10 -29.5 -10t-35 15t-15.5 33.5z" />
<glyph unicode="&#xf4;" horiz-adv-x="1116" d="M109 424q0 223 124 410q63 92 171 148t245 56q190 0 296 -133t106 -325q0 -254 -150.5 -431.5t-390.5 -177.5q-190 0 -293.5 130t-107.5 323zM272 421q0 -134 63.5 -228.5t206 -94.5t247 137.5t104.5 309.5t-65.5 269t-187.5 97t-208 -74.5t-123 -178t-37 -237.5z M362 1273.5q0 18.5 9 31.5l239 282q2 2 9.5 11.5t12.5 14.5t14 13t18 12q29 12 51 13q57 0 84 -47l174 -287q12 -20 12 -37.5t-20.5 -36t-41 -18.5t-40.5 26l-174 228l-267 -244q-10 -10 -29.5 -10t-35 15t-15.5 33.5z" />
<glyph unicode="&#xf5;" horiz-adv-x="1116" d="M109 424q0 223 124 410q63 92 171 148t245 56q190 0 296 -133t106 -325q0 -254 -150.5 -431.5t-390.5 -177.5q-190 0 -293.5 130t-107.5 323zM272 421q0 -134 63.5 -228.5t206 -94.5t247 137.5t104.5 309.5t-65.5 269t-187.5 97t-208 -74.5t-123 -178t-37 -237.5z M356 1368q0 29 74 94.5t145 65.5q39 0 117 -41t122 -41t96.5 41t56.5 41q59 0 59 -64q0 -29 -73.5 -94t-145.5 -65q-39 0 -117 40.5t-122 40.5t-96 -40.5t-56 -40.5q-59 0 -60 63z" />
<glyph unicode="&#xf6;" horiz-adv-x="1116" d="M109 424q0 223 124 410q63 92 171 148t245 56q190 0 296 -133t106 -325q0 -254 -150.5 -431.5t-390.5 -177.5q-190 0 -293.5 130t-107.5 323zM272 421q0 -134 63.5 -228.5t206 -94.5t247 137.5t104.5 309.5t-65.5 269t-187.5 97t-208 -74.5t-123 -178t-37 -237.5z M399 1368q0 125 117 125q92 0 92 -76q0 -127 -116 -127q-92 0 -93 78zM793 1368q0 125 116 125q92 0 92 -76q0 -127 -116 -127q-92 0 -92 78z" />
<glyph unicode="&#xf7;" d="M246 1028q0 45 32.5 78t77.5 33t78 -33t33 -77t-33 -77.5t-79 -33.5t-77.5 32.5t-31.5 77.5zM303 313q0 4 6 23l629 1089q12 23 44 23t59.5 -20.5t27.5 -46t-6 -31.5l-627 -1090q-12 -23 -44 -22.5t-60.5 23t-28.5 52.5zM903 649q0 45 32 78t78 33t78.5 -33t32.5 -78 t-32.5 -77.5t-78.5 -32.5t-78 32.5t-32 77.5z" />
<glyph unicode="&#xf8;" horiz-adv-x="1116" d="M109 403q0 129 31.5 233.5t94 197t170 148.5t244.5 56q18 0 27 -2l69 234q14 47 74 47t60 -31l-9 -37l-71 -237q121 -47 186.5 -166t65.5 -266q0 -254 -150.5 -431.5t-390.5 -177.5h-21l-69 -237q-14 -43 -92 -43q-41 0 -41 24q0 6 8 33l72 248q-125 45 -191.5 161.5 t-66.5 245.5zM272 444q0 -242 136 -317l231 784q-174 0 -270.5 -144.5t-96.5 -322.5zM528 98q156 0 260.5 137.5t104.5 325.5q0 236 -133 318z" />
<glyph unicode="&#xf9;" horiz-adv-x="1134" d="M160 289q0 76 78 698q6 51 80.5 51t74.5 -41q-78 -592 -78 -704q0 -186 160 -187q82 0 145.5 47.5t100.5 127.5q72 150 96 342l45 364q6 51 96 51q59 0 60 -41l-72 -573q-8 -66 -8 -152t17.5 -159.5t17.5 -83.5q0 -25 -38 -41.5t-62.5 -16.5t-36 18.5t-18.5 51.5t-11 59 q-10 68 -10 109q-115 -238 -365 -238q-135 0 -203.5 88t-68.5 230zM505.5 1570q0.5 29 27 55t56 26t42.5 -15l280 -331q8 -12 8.5 -31t-15 -34t-35 -15t-29.5 10l-308 281q-27 25 -26.5 54z" />
<glyph unicode="&#xfa;" horiz-adv-x="1134" d="M160 289q0 76 78 698q6 51 80.5 51t74.5 -41q-78 -592 -78 -704q0 -186 160 -187q82 0 145.5 47.5t100.5 127.5q72 150 96 342l45 364q6 51 96 51q59 0 60 -41l-72 -573q-8 -66 -8 -152t17.5 -159.5t17.5 -83.5q0 -25 -38 -41.5t-62.5 -16.5t-36 18.5t-18.5 51.5t-11 59 q-10 68 -10 109q-115 -238 -365 -238q-135 0 -203.5 88t-68.5 230zM461 1273.5q0 18.5 8 31.5l281 331q12 14 41.5 14.5t56 -25.5t26.5 -55.5t-26 -53.5l-307 -281q-10 -10 -29.5 -10t-35 15t-15.5 33.5z" />
<glyph unicode="&#xfb;" horiz-adv-x="1073" d="M129 289q0 76 78 698q6 51 80.5 51t74.5 -41q-78 -592 -77 -704q0 -186 159 -187q82 0 145.5 47.5t102.5 127.5q70 150 94 342l45 364q6 51 97 51q59 0 59 -41l-72 -573q-8 -66 -8 -152t17.5 -159.5t17.5 -83.5q0 -25 -38 -41.5t-62.5 -16.5t-35.5 18.5t-18.5 51.5 t-11.5 59q-10 68 -10 109q-115 -238 -365 -238q-135 0 -203.5 88t-68.5 230zM315 1273.5q0 18.5 9 31.5l239 282q2 2 9.5 11.5t12.5 14.5t14 13t19 12q27 12 50 13q57 0 84 -47l174 -287q12 -20 12 -37.5t-20.5 -36t-41 -18.5t-40.5 26l-174 228l-267 -244 q-10 -10 -29.5 -10t-35 15t-15.5 33.5z" />
<glyph unicode="&#xfc;" horiz-adv-x="1134" d="M160 289q0 76 78 698q6 51 80.5 51t74.5 -41q-78 -592 -78 -704q0 -186 160 -187q82 0 145.5 47.5t100.5 127.5q72 150 96 342l45 364q6 51 96 51q59 0 60 -41l-72 -573q-8 -66 -8 -152t17.5 -159.5t17.5 -83.5q0 -25 -38 -41.5t-62.5 -16.5t-36 18.5t-18.5 51.5t-11 59 q-10 68 -10 109q-115 -238 -365 -238q-135 0 -203.5 88t-68.5 230zM412 1368q0 125 116 125q93 0 93 -76q0 -127 -117 -127q-92 0 -92 78zM805 1368q0 125 117 125q92 0 92 -76q0 -127 -117 -127q-92 0 -92 78z" />
<glyph unicode="&#xfd;" horiz-adv-x="1019" d="M-135 -575q0 29 28.5 62.5t55.5 33.5l26 -21q27 -23 81.5 -44t141.5 -21t152 49q133 100 266 676q-162 -188 -278 -189q-63 0 -74 78l-129 942q0 47 72 47q45 0 60.5 -15t21.5 -62l114 -846q76 25 176.5 150.5t141.5 281.5l117 440q14 51 106 51q29 0 38 -8t9 -33 l-323 -1183q-102 -375 -310 -478q-82 -39 -188.5 -38.5t-205.5 45.5t-99 82zM444 1273.5q0 18.5 9 31.5l280 331q12 14 42 14.5t56.5 -25.5t26.5 -55.5t-27 -53.5l-307 -281q-10 -10 -29.5 -10t-35 15t-15.5 33.5z" />
<glyph unicode="&#xfe;" horiz-adv-x="1136" d="M57 -676l293 2439q8 53 81 53.5t73 -42.5l-111 -922q133 186 338 186q133 0 226.5 -94t93.5 -276q0 -199 -97 -365q-53 -96 -135 -168t-217 -118t-305 -46l-86 -637q-6 -51 -98 -51q-55 0 -56 41zM311 102q16 -4 51 -4q223 0 373 162t150 387q0 109 -51.5 182.5 t-149.5 73.5q-281 0 -340 -516z" />
<glyph unicode="&#xff;" horiz-adv-x="1019" d="M-135 -575q0 29 28.5 62.5t55.5 33.5l26 -21q27 -23 81.5 -44t141.5 -21t152 49q133 100 266 676q-162 -188 -278 -189q-63 0 -74 78l-129 942q0 47 72 47q45 0 60.5 -15t21.5 -62l114 -846q76 25 176.5 150.5t141.5 281.5l117 440q14 51 106 51q29 0 38 -8t9 -33 l-323 -1183q-102 -375 -310 -478q-82 -39 -188.5 -38.5t-205.5 45.5t-99 82zM330 1368q0 125 116 125q93 0 93 -76q0 -127 -117 -127q-92 0 -92 78zM723 1368q0 125 117 125q92 0 92 -76q0 -127 -117 -127q-92 0 -92 78z" />
<glyph unicode="&#x152;" horiz-adv-x="2037" d="M86 657q0 317 107 596q59 152 144 268.5t218 190.5t297 74q104 0 190 -25h932q63 0 64 -55q0 -41 -16.5 -57.5t-59.5 -16.5h-707q162 -174 162 -528q0 -47 -4 -113h402q72 0 71 -53q0 -41 -17.5 -58.5t-60.5 -17.5h-409q-68 -496 -328 -731h758q53 0 53 -61 q0 -31 -16.5 -50.5t-40.5 -19.5h-981q-92 -29 -219 -29t-239 53.5t-177 149.5q-123 184 -123 483zM252 645q0 -219 88 -373q98 -170 336 -170q121 0 225.5 74t169 184.5t107.5 251.5q76 250 75 506q0 219 -90 373q-45 80 -129 125t-204.5 45t-225 -74t-169 -184.5 t-107.5 -251.5q-76 -250 -76 -506z" />
<glyph unicode="&#x153;" horiz-adv-x="1544" d="M109 424q0 223 124 410q63 92 171 148t245 56q178 0 285 -123q154 123 334 123q113 0 184.5 -54t71.5 -155q0 -180 -187.5 -293.5t-462.5 -113.5q0 -154 72 -239t207 -85q63 0 122.5 27t94.5 55l35 27q23 0 39 -31t16 -61q0 -37 -107.5 -90.5t-207.5 -53.5 q-205 0 -318 109q-137 -109 -322.5 -109t-290.5 131t-105 322zM272 444q0 -158 63.5 -252t190.5 -94t226 95q-43 98 -43 231q0 223 120 385q-66 102 -188.5 102t-208.5 -75q-160 -137 -160 -392zM883 543q190 0 340.5 75.5t150.5 190.5q0 51 -31.5 78.5t-82.5 27.5 q-111 0 -230 -101t-147 -271z" />
<glyph unicode="&#x178;" horiz-adv-x="1220" d="M121 1735q0 51 82 51q39 0 57.5 -12.5t32.5 -47.5l289 -757l557 780q27 37 80 37q80 0 79 -57q0 -37 -22 -66l-637 -858l-96 -768q-8 -66 -83 -66t-75 47q0 14 2 31l92 762l-356 907zM471 1982q0 125 117 125q92 1 92 -75q0 -127 -117 -127q-92 0 -92 77zM864 1982 q0 125 117 125q92 1 92 -75q0 -127 -117 -127q-92 0 -92 77z" />
<glyph unicode="&#x2c6;" horiz-adv-x="827" d="M102 1273.5q0 18.5 9 31.5l239 282q2 2 9.5 11.5t12.5 14.5t14 13t20 12q27 12 49 13q57 0 84 -47l174 -287q12 -20 12 -37.5t-20.5 -36t-41 -18.5t-40.5 26l-174 228l-267 -244q-10 -10 -29.5 -10t-35 15t-15.5 33.5z" />
<glyph unicode="&#x2dc;" horiz-adv-x="874" d="M102 1368q0 29 74 94.5t146 65.5q38 0 116 -41t122 -41t96.5 41t56.5 41q59 0 59 -64q0 -29 -73.5 -94t-145.5 -65q-39 0 -117 40.5t-122 40.5t-96 -40.5t-56 -40.5q-59 0 -60 63z" />
<glyph unicode="&#x2000;" horiz-adv-x="1120" />
<glyph unicode="&#x2001;" horiz-adv-x="2241" />
<glyph unicode="&#x2002;" horiz-adv-x="1120" />
<glyph unicode="&#x2003;" horiz-adv-x="2241" />
<glyph unicode="&#x2004;" horiz-adv-x="747" />
<glyph unicode="&#x2005;" horiz-adv-x="560" />
<glyph unicode="&#x2006;" horiz-adv-x="373" />
<glyph unicode="&#x2007;" horiz-adv-x="373" />
<glyph unicode="&#x2008;" horiz-adv-x="280" />
<glyph unicode="&#x2009;" horiz-adv-x="448" />
<glyph unicode="&#x200a;" horiz-adv-x="124" />
<glyph unicode="&#x2010;" horiz-adv-x="937" d="M139.5 548.5q0.5 59.5 53.5 59.5h555q23 0 35 -17.5t12 -41t-15.5 -42t-40.5 -18.5h-561q-39 0 -38.5 59.5z" />
<glyph unicode="&#x2011;" horiz-adv-x="937" d="M139.5 548.5q0.5 59.5 53.5 59.5h555q23 0 35 -17.5t12 -41t-15.5 -42t-40.5 -18.5h-561q-39 0 -38.5 59.5z" />
<glyph unicode="&#x2012;" horiz-adv-x="937" d="M139.5 548.5q0.5 59.5 53.5 59.5h555q23 0 35 -17.5t12 -41t-15.5 -42t-40.5 -18.5h-561q-39 0 -38.5 59.5z" />
<glyph unicode="&#x2013;" horiz-adv-x="1187" d="M0 548.5q0 59.5 51 59.5h1094q20 0 32.5 -16.5t12.5 -38.5q0 -63 -55 -64h-1098q-37 0 -37 59.5z" />
<glyph unicode="&#x2014;" horiz-adv-x="1718" d="M0 548.5q0 59.5 51 59.5h1624q20 0 32.5 -16.5t12.5 -38.5q0 -63 -55 -64h-1628q-37 0 -37 59.5z" />
<glyph unicode="&#x2018;" horiz-adv-x="452" d="M102 1161q1 51 142 473q16 49 71.5 49t55.5 -36q0 -2 -1 -7.5t-3 -19.5t-6.5 -33.5t-11.5 -57.5t-15 -82t-21.5 -115.5t-28 -151.5t-98.5 -80t-84 61z" />
<glyph unicode="&#x2019;" horiz-adv-x="473" d="M205 1137q0 2 1 7t3 19.5t6 34t11 57t15.5 81.5t21.5 116t27.5 151.5t98.5 79.5t84 -61q0 -51 -141 -473q-16 -49 -71.5 -49t-55.5 37z" />
<glyph unicode="&#x201a;" horiz-adv-x="575" d="M205 -377q0 2 1 7t3 19.5t6 34t11 57.5t15.5 82t21.5 115.5t27.5 151.5t98.5 80t84 -61q0 -52 -141 -474q-16 -49 -71.5 -49t-55.5 37z" />
<glyph unicode="&#x201c;" horiz-adv-x="796" d="M102 1161q1 51 142 473q16 49 71.5 49t55.5 -36q0 -2 -1 -7.5t-3 -19.5t-6.5 -33.5t-11.5 -57.5t-15 -82t-21.5 -115.5t-28 -151.5t-98.5 -80t-84 61zM446 1161q1 51 142 473q16 49 71.5 49t55.5 -36q0 -2 -1 -7.5t-3 -19.5t-6.5 -33.5t-11.5 -57.5t-15 -82t-21.5 -115.5 t-28 -151.5t-98.5 -80t-84 61z" />
<glyph unicode="&#x201d;" horiz-adv-x="817" d="M205 1137q0 2 1 7t3 19.5t6 34t11 57t15.5 81.5t21.5 116t27.5 151.5t98.5 79.5t84 -61q0 -51 -141 -473q-16 -49 -71.5 -49t-55.5 37zM549 1137q0 2 1 7t3 19.5t6 34t11.5 57t15.5 81.5t21.5 116t27.5 151.5t98 79.5t84 -61q0 -51 -141 -473q-16 -49 -71.5 -49t-55.5 37 z" />
<glyph unicode="&#x201e;" horiz-adv-x="919" d="M205 -377q0 2 1 7t3 19.5t6 34t11 57.5t15.5 82t21.5 115.5t27.5 151.5t98.5 80t84 -61q0 -52 -141 -474q-16 -49 -71.5 -49t-55.5 37zM549 -377q0 2 1 7t3 19.5t6 34t11.5 57.5t15.5 82t21.5 115.5t27.5 151.5t98 80t84 -61q0 -52 -141 -474q-16 -49 -71.5 -49t-55.5 37 z" />
<glyph unicode="&#x2022;" horiz-adv-x="722" d="M205 829q0 186 174 187q139 0 139 -113q0 -190 -176 -190q-137 0 -137 116z" />
<glyph unicode="&#x2026;" horiz-adv-x="1241" d="M102 49q0 125 117 125q92 0 92 -76q0 -127 -116 -127q-92 0 -93 78zM516 49q0 125 117 125q92 0 92 -76q0 -127 -117 -127q-92 0 -92 78zM930 49q0 125 117 125q92 0 92 -76q0 -127 -117 -127q-92 0 -92 78z" />
<glyph unicode="&#x202f;" horiz-adv-x="448" />
<glyph unicode="&#x2039;" horiz-adv-x="724" d="M133 570.5q0 50.5 33 80.5l381 346q18 18 42.5 18.5t44 -24t19.5 -46t-10 -32.5l-324 -331v-15l218 -301q16 -23 16 -47t-22.5 -51t-46 -27t-31.5 13l-277 317q-43 49 -43 99.5z" />
<glyph unicode="&#x203a;" horiz-adv-x="724" d="M133 211.5q0 21.5 10 32.5l324 331v15l-217 301q-16 23 -16.5 47.5t22.5 51t45.5 26.5t32.5 -12l276 -318q43 -49 43 -99t-32 -81l-381 -346q-18 -18 -43 -18.5t-44.5 24t-19.5 46z" />
<glyph unicode="&#x205f;" horiz-adv-x="560" />
<glyph unicode="&#x20ac;" d="M20 631q0 31 16.5 54.5t43.5 23.5h129q0 113 20 260h-118q-20 0 -31.5 19.5t-11.5 46t18 48t43 21.5h125q61 276 209 459q160 199 424 198q102 0 190 -34.5t136.5 -83t75 -89.5t26.5 -61t-34 -44t-53.5 -24t-34.5 21.5t-36.5 53.5t-54.5 63q-76 74 -215 73 q-174 0 -289 -149.5t-172 -382.5h602q55 0 55 -64q0 -27 -17 -49t-42 -22h-627q-20 -137 -24 -260h616q18 0 31.5 -17.5t13.5 -44t-16.5 -50.5t-46.5 -24h-594q16 -205 112.5 -334.5t276.5 -129.5q231 0 385 208q37 53 63.5 53.5t47 -17t20.5 -38t-14 -43.5 q-193 -301 -523 -301q-256 0 -385 162t-149 440h-148q-43 0 -43 58z" />
<glyph unicode="&#x2122;" horiz-adv-x="1812" d="M92 1700q0 61 62 61h551q57 0 57 -49q-1 -63 -62 -63h-215l-114 -920q-6 -55 -67.5 -55t-61.5 51q2 16 114 924h-209q-55 0 -55 51zM702 719l164 1003q8 55 80 56h12q25 0 46.5 -14.5t25.5 -39.5l146 -784l325 786q8 20 30.5 35t45.5 15h22q66 0 66 -58l-76 -993 q-6 -51 -67 -51q-33 0 -45.5 11t-12.5 42l56 735l-291 -725q-18 -47 -72 -47q-20 0 -45 12.5t-29 36.5l-133 725l-121 -739q-8 -51 -71 -51q-31 0 -43.5 9t-12.5 36z" />
<glyph unicode="&#xe000;" horiz-adv-x="1034" d="M0 0v1034h1034v-1034h-1034z" />
<glyph unicode="&#xfb01;" horiz-adv-x="1196" d="M-385 -575q0 27 27.5 61.5t54.5 34.5q2 0 28.5 -21.5t80 -43t111.5 -21.5t94 12t67 51t50 89.5t40 146.5q27 133 68 479l75 659h-164q-27 0 -41 18.5t-14 44.5t20.5 50.5t43.5 24.5h172l26 233q35 322 138 449q94 115 262 114q92 0 176 -22.5t84 -48.5q0 -31 -22.5 -70 t-49.5 -39q-2 0 -24 10q-68 29 -145 29t-121 -28.5t-67.5 -65.5t-41.5 -107q-23 -82 -41 -235l-27 -219h201q47 0 47 -62q0 -27 -18 -51.5t-43 -24.5h-205l-123 -1058q-41 -379 -232 -478q-76 -41 -184 -41t-205.5 46.5t-97.5 83.5zM838 12l116 975q6 51 80 51t74 -41 l-119 -974q-6 -52 -96 -52q-31 0 -43 8.5t-12 32.5zM981 1368q0 125 117 125q92 0 92 -76q0 -127 -117 -127q-92 0 -92 78z" />
<glyph unicode="&#xfb02;" horiz-adv-x="1196" d="M-385 -575q0 27 27.5 61.5t54.5 34.5q2 0 28.5 -21.5t80 -43t111.5 -21.5t94 12t67 51t50 89.5t40 146.5q27 133 68 479l75 659h-164q-27 0 -41 18.5t-14 44.5t20.5 50.5t43.5 24.5h172l26 233q35 322 138 449q94 115 262 114q92 0 176 -22.5t84 -48.5q0 -31 -22.5 -70 t-49.5 -39q-2 0 -24 10q-68 29 -145 29t-121 -28.5t-67.5 -65.5t-41.5 -107q-23 -82 -41 -235l-27 -219h201q47 0 47 -62q0 -27 -18 -51.5t-43 -24.5h-205l-123 -1058q-41 -379 -232 -478q-76 -41 -184 -41t-205.5 46.5t-97.5 83.5zM838 12l209 1751q8 53 80.5 53.5 t72.5 -42.5l-211 -1751q-6 -52 -96 -52q-31 0 -43 8.5t-12 32.5z" />
</font>
</defs>
</svg>
